<?xml version="1.0" encoding="UTF-8" standalone="no"?>
<!-- Created with Inkscape (http://www.inkscape.org/) -->

<svg
   xmlns:dc="http://purl.org/dc/elements/1.1/"
   xmlns:cc="http://creativecommons.org/ns#"
   xmlns:rdf="http://www.w3.org/1999/02/22-rdf-syntax-ns#"
   xmlns:svg="http://www.w3.org/2000/svg"
   xmlns="http://www.w3.org/2000/svg"
   xmlns:sodipodi="http://sodipodi.sourceforge.net/DTD/sodipodi-0.dtd"
   xmlns:inkscape="http://www.inkscape.org/namespaces/inkscape"
   width="100"
   height="91.823196"
   id="svg3380"
   version="1.1"
   inkscape:version="0.48.5 r10040"
   sodipodi:docname="Nowy dokument 15">
  <defs
     id="defs3382" />
  <sodipodi:namedview
     id="base"
     pagecolor="#ffffff"
     bordercolor="#666666"
     borderopacity="1.0"
     inkscape:pageopacity="0.0"
     inkscape:pageshadow="2"
     inkscape:zoom="0.35"
     inkscape:cx="50"
     inkscape:cy="45.911597"
     inkscape:document-units="px"
     inkscape:current-layer="layer1"
     showgrid="false"
     fit-margin-top="0"
     fit-margin-left="0"
     fit-margin-right="0"
     fit-margin-bottom="0"
     inkscape:window-width="511"
     inkscape:window-height="423"
     inkscape:window-x="104"
     inkscape:window-y="26"
     inkscape:window-maximized="0" />
  <metadata
     id="metadata3385">
    <rdf:RDF>
      <cc:Work
         rdf:about="">
        <dc:format>image/svg+xml</dc:format>
        <dc:type
           rdf:resource="http://purl.org/dc/dcmitype/StillImage" />
        <dc:title></dc:title>
      </cc:Work>
    </rdf:RDF>
  </metadata>
  <g
     inkscape:label="Layer 1"
     inkscape:groupmode="layer"
     id="layer1"
     transform="translate(-325,-486.45058)">
    <path
       inkscape:connector-curvature="0"
       style="fill:#000000;fill-opacity:1;stroke:none"
       d="m 341.51042,486.45088 c -9.14605,0 -16.51042,7.3644 -16.51042,16.5104 l 0,58.8021 c 0,9.146 7.36437,16.5104 16.51042,16.5104 l 66.97918,0 c 9.146,0 16.5104,-7.3644 16.5104,-16.5104 l 0,-37.1458 -36.59898,0 0,-26.4167 2.78125,-0.037 0,23.4219 33.81773,-0.031 -33.8073,-35.1042 -49.68228,0 z m 2.7031,40.5208 2.125,2.1667 c -2.08283,1.9438 -3.75006,3.7706 -5,5.4792 -1.24995,1.7085 -2.18045,3.5905 -2.79165,5.6458 -0.6112,2.0553 -0.91667,4.4721 -0.91667,7.25 0,2.75 0.30547,5.1526 0.91667,7.2083 0.6112,2.0557 1.53485,3.9446 2.77083,5.6667 1.23595,1.7221 2.91001,3.5553 5.02082,5.5 l -2.125,2.1667 c -2.41683,-1.9727 -4.39594,-3.9308 -5.9375,-5.875 -1.54156,-1.9443 -2.7292,-4.1112 -3.56248,-6.5 -0.8333,-2.3889 -1.25,-5.1107 -1.25,-8.1667 0,-3.0551 0.4167,-5.7778 1.25,-8.1667 0.83328,-2.3888 2.02092,-4.5553 3.56248,-6.5 1.54156,-1.9446 3.52067,-3.9032 5.9375,-5.875 z m 29.71875,0 c 2.41683,1.9718 4.39594,3.9304 5.9375,5.875 1.54156,1.9447 2.7292,4.1112 3.5625,6.5 0.8333,2.3889 1.25,5.1116 1.25,8.1667 0,3.056 -0.4167,5.7778 -1.25,8.1667 -0.8333,2.3888 -2.02094,4.5557 -3.5625,6.5 -1.54156,1.9442 -3.52067,3.9023 -5.9375,5.875 l -2.125,-2.1667 c 2.1108,-1.9447 3.78488,-3.7779 5.02085,-5.5 1.23595,-1.7221 2.15963,-3.611 2.77083,-5.6667 0.61117,-2.0557 0.91665,-4.4583 0.91667,-7.2083 -2e-5,-2.7779 -0.3055,-5.1947 -0.91667,-7.25 -0.6112,-2.0553 -1.54173,-3.9373 -2.79168,-5.6458 -1.24995,-1.7086 -2.91717,-3.5354 -5,-5.4792 l 2.125,-2.1667 z"
       id="icon-body">
      <title
         id="title3395">lisp document icon</title>
    </path>
  </g>
</svg>
