<?xml version="1.0" encoding="UTF-8" standalone="no"?>
<!-- Created with Inkscape (http://www.inkscape.org/) -->

<svg
   xmlns:dc="http://purl.org/dc/elements/1.1/"
   xmlns:cc="http://creativecommons.org/ns#"
   xmlns:rdf="http://www.w3.org/1999/02/22-rdf-syntax-ns#"
   xmlns:svg="http://www.w3.org/2000/svg"
   xmlns="http://www.w3.org/2000/svg"
   xmlns:sodipodi="http://sodipodi.sourceforge.net/DTD/sodipodi-0.dtd"
   xmlns:inkscape="http://www.inkscape.org/namespaces/inkscape"
   width="100"
   height="91.817703"
   id="svg3230"
   version="1.1"
   inkscape:version="0.48.5 r10040"
   sodipodi:docname="Nowy dokument 7">
  <defs
     id="defs3232" />
  <sodipodi:namedview
     id="base"
     pagecolor="#ffffff"
     bordercolor="#666666"
     borderopacity="1.0"
     inkscape:pageopacity="0.0"
     inkscape:pageshadow="2"
     inkscape:zoom="0.35"
     inkscape:cx="50"
     inkscape:cy="45.908847"
     inkscape:document-units="px"
     inkscape:current-layer="layer1"
     showgrid="false"
     fit-margin-top="0"
     fit-margin-left="0"
     fit-margin-right="0"
     fit-margin-bottom="0"
     inkscape:window-width="511"
     inkscape:window-height="423"
     inkscape:window-x="208"
     inkscape:window-y="130"
     inkscape:window-maximized="0" />
  <metadata
     id="metadata3235">
    <rdf:RDF>
      <cc:Work
         rdf:about="">
        <dc:format>image/svg+xml</dc:format>
        <dc:type
           rdf:resource="http://purl.org/dc/dcmitype/StillImage" />
        <dc:title></dc:title>
      </cc:Work>
    </rdf:RDF>
  </metadata>
  <g
     inkscape:label="Layer 1"
     inkscape:groupmode="layer"
     id="layer1"
     transform="translate(-325,-486.45333)">
    <path
       inkscape:connector-curvature="0"
       style="fill:#000000;fill-opacity:1;stroke:none"
       d="m 341.5104,486.45333 c -9.146,0 -16.5104,7.3592 -16.5104,16.5052 l 0,58.8021 c 0,9.146 7.3644,16.5104 16.5104,16.5104 l 66.9792,0 c 9.146,0 16.5104,-7.3644 16.5104,-16.5104 l 0,-44.3854 c 0,-8.0563 -6.1396,-13.6917 -18.6667,-14.2344 -12.1796,-0.055 -27.0391,-0.1358 -33.8593,-0.2187 -0.2892,-16.4975 -14.6198,-16.4688 -14.6198,-16.4688 l -16.3438,0 z m 12.4427,44.8281 42.0886,0 c 4.2904,0 7.7448,3.4543 7.7448,7.7448 l 0,0.6719 c 0,4.2904 -3.4544,7.7448 -7.7448,7.7448 l -42.0886,0 c -4.2904,0 -7.7448,-3.4544 -7.7448,-7.7448 l 0,-0.6719 c 0,-4.2905 3.4544,-7.7448 7.7448,-7.7448 z"
       id="icon-body">
      <title
         id="title3245">opened folder icon</title>
    </path>
  </g>
</svg>
