<?xml version="1.0" encoding="UTF-8" standalone="no"?>
<!-- Created with Inkscape (http://www.inkscape.org/) -->

<svg
   xmlns:dc="http://purl.org/dc/elements/1.1/"
   xmlns:cc="http://creativecommons.org/ns#"
   xmlns:rdf="http://www.w3.org/1999/02/22-rdf-syntax-ns#"
   xmlns:svg="http://www.w3.org/2000/svg"
   xmlns="http://www.w3.org/2000/svg"
   xmlns:sodipodi="http://sodipodi.sourceforge.net/DTD/sodipodi-0.dtd"
   xmlns:inkscape="http://www.inkscape.org/namespaces/inkscape"
   width="100"
   height="91.817703"
   id="svg3318"
   version="1.1"
   inkscape:version="0.48.5 r10040"
   sodipodi:docname="Nowy dokument 12">
  <defs
     id="defs3320" />
  <sodipodi:namedview
     id="base"
     pagecolor="#ffffff"
     bordercolor="#666666"
     borderopacity="1.0"
     inkscape:pageopacity="0.0"
     inkscape:pageshadow="2"
     inkscape:zoom="0.35"
     inkscape:cx="50"
     inkscape:cy="45.908847"
     inkscape:document-units="px"
     inkscape:current-layer="layer1"
     showgrid="false"
     fit-margin-top="0"
     fit-margin-left="0"
     fit-margin-right="0"
     fit-margin-bottom="0"
     inkscape:window-width="511"
     inkscape:window-height="423"
     inkscape:window-x="286"
     inkscape:window-y="208"
     inkscape:window-maximized="0" />
  <metadata
     id="metadata3323">
    <rdf:RDF>
      <cc:Work
         rdf:about="">
        <dc:format>image/svg+xml</dc:format>
        <dc:type
           rdf:resource="http://purl.org/dc/dcmitype/StillImage" />
        <dc:title></dc:title>
      </cc:Work>
    </rdf:RDF>
  </metadata>
  <g
     inkscape:label="Layer 1"
     inkscape:groupmode="layer"
     id="layer1"
     transform="translate(-325,-486.45333)">
    <path
       inkscape:connector-curvature="0"
       style="fill:#000000;fill-opacity:1;stroke:none"
       d="m 341.51042,486.45333 c -9.14604,0 -16.51042,7.3592 -16.51042,16.5052 l 0,58.8021 c 0,9.146 7.36438,16.5104 16.51042,16.5104 l 66.97916,0 c 9.14604,0 16.51042,-7.3644 16.51042,-16.5104 l 0,-44.3854 c 0,-8.0563 -6.13965,-13.6916 -18.66666,-14.2344 -12.17964,-0.055 -27.0392,-0.1358 -33.85938,-0.2187 -0.28918,-16.4975 -14.61979,-16.4688 -14.61979,-16.4688 l -16.34375,0 z m 33.15104,24.5261 0.67187,0 c 4.29047,0 7.7448,3.4543 7.7448,7.7448 l 0,12.9635 12.96354,0 c 4.29046,0 7.74479,3.4543 7.74479,7.7448 l 0,0.6719 c 0,4.2904 -3.45433,7.7448 -7.74479,7.7448 l -12.96354,0 0,12.9635 c 0,4.2904 -3.45433,7.7448 -7.7448,7.7448 l -0.67187,0 c -4.29045,0 -7.74479,-3.4544 -7.74479,-7.7448 l 0,-12.9635 -12.96355,0 c -4.29045,0 -7.74479,-3.4544 -7.74479,-7.7448 l 0,-0.6719 c 0,-4.2905 3.45434,-7.7448 7.74479,-7.7448 l 12.96355,0 0,-12.9635 c 0,-4.2905 3.45434,-7.7448 7.74479,-7.7448 z"
       id="icon-body">
      <title
         id="title3333">closed folder icon</title>
    </path>
  </g>
</svg>
