<?xml version="1.0" encoding="UTF-8" standalone="no"?>
<!-- Created with Inkscape (http://www.inkscape.org/) -->

<svg
   xmlns:dc="http://purl.org/dc/elements/1.1/"
   xmlns:cc="http://creativecommons.org/ns#"
   xmlns:rdf="http://www.w3.org/1999/02/22-rdf-syntax-ns#"
   xmlns:svg="http://www.w3.org/2000/svg"
   xmlns="http://www.w3.org/2000/svg"
   xmlns:sodipodi="http://sodipodi.sourceforge.net/DTD/sodipodi-0.dtd"
   xmlns:inkscape="http://www.inkscape.org/namespaces/inkscape"
   width="100"
   height="100"
   id="svg3238"
   version="1.1"
   inkscape:version="0.48.5 r10040"
   sodipodi:docname="Nowy dokument 8">
  <defs
     id="defs3240" />
  <sodipodi:namedview
     id="base"
     pagecolor="#ffffff"
     bordercolor="#666666"
     borderopacity="1.0"
     inkscape:pageopacity="0.0"
     inkscape:pageshadow="2"
     inkscape:zoom="8.6999998"
     inkscape:cx="50.000001"
     inkscape:cy="49.999996"
     inkscape:document-units="px"
     inkscape:current-layer="layer1"
     showgrid="false"
     fit-margin-top="0"
     fit-margin-left="0"
     fit-margin-right="0"
     fit-margin-bottom="0"
     inkscape:window-width="1842"
     inkscape:window-height="1057"
     inkscape:window-x="70"
     inkscape:window-y="-8"
     inkscape:window-maximized="1" />
  <metadata
     id="metadata3243">
    <rdf:RDF>
      <cc:Work
         rdf:about="">
        <dc:format>image/svg+xml</dc:format>
        <dc:type
           rdf:resource="http://purl.org/dc/dcmitype/StillImage" />
        <dc:title></dc:title>
      </cc:Work>
    </rdf:RDF>
  </metadata>
  <g
     inkscape:label="Layer 1"
     inkscape:groupmode="layer"
     id="layer1"
     transform="translate(-598.5714,-350.93361)">
    <path
       sodipodi:type="arc"
       style="fill:none;stroke:none"
       id="icon-sizer"
       sodipodi:cx="-1218.5714"
       sodipodi:cy="-11.923532"
       sodipodi:rx="318.57144"
       sodipodi:ry="318.57144"
       d="m -899.99997,-11.923532 a 318.57144,318.57144 0 1 1 -637.14293,0 318.57144,318.57144 0 1 1 637.14293,0 z"
       transform="matrix(0.15695067,0,0,0.15695067,839.827,402.80502)">
      <title
         id="title3261">transport icon background</title>
    </path>
    <path
       style="fill:#000000;fill-opacity:1;stroke:none"
       d="m 630.7891,366.39563 c -4.6095,0 -8.3126,3.73428 -8.3126,8.34375 l 0,17.875 c 0.1784,5.74317 -0.08,10.23807 0,16.625 l 0,17.90625 c 0,4.60946 3.7031,8.3125 8.3126,8.3125 4.6095,0 8.3124,-3.70304 8.3124,-8.3125 l 0,-17.90625 c -0.071,-6.36725 -0.1603,-7.21158 0,-16.625 l 0,-17.875 c 0,-4.60947 -3.7029,-8.34375 -8.3124,-8.34375 z m 21.625,0 c -2.2875,-2e-5 -4.5589,0.87147 -6.3126,2.625 -3.507,3.50705 -2.0263,8.37018 0,12.6875 6.5897,18.75319 6.5694,18.38904 0.125,38.46875 -2.1567,4.99257 -3.5021,9.14921 0,12.65625 3.5072,3.50707 9.1492,3.50705 12.6563,0 13.2774,-13.31695 12.2038,-12.17243 25.5,-25.46875 2.9828,-4.55521 3.0505,-9.57552 -0.1563,-12.84375 -13.2961,-13.29629 -12.1913,-12.18305 -25.4687,-25.5 -1.7535,-1.75353 -4.0564,-2.625 -6.3437,-2.625 z"
       id="icon-body"
       inkscape:connector-curvature="0">
      <title
         id="title3259">replay icon</title>
    </path>
  </g>
</svg>
