<?xml version="1.0" encoding="UTF-8" standalone="no"?>
<!-- Created with Inkscape (http://www.inkscape.org/) -->

<svg
   xmlns:dc="http://purl.org/dc/elements/1.1/"
   xmlns:cc="http://creativecommons.org/ns#"
   xmlns:rdf="http://www.w3.org/1999/02/22-rdf-syntax-ns#"
   xmlns:svg="http://www.w3.org/2000/svg"
   xmlns="http://www.w3.org/2000/svg"
   xmlns:sodipodi="http://sodipodi.sourceforge.net/DTD/sodipodi-0.dtd"
   xmlns:inkscape="http://www.inkscape.org/namespaces/inkscape"
   width="744.09448819"
   height="1052.3622047"
   id="svg2"
   version="1.1"
   inkscape:version="0.48.5 r10040"
   sodipodi:docname="Nowy dokument 1">
  <defs
     id="defs4" />
  <sodipodi:namedview
     id="base"
     pagecolor="#ffffff"
     bordercolor="#666666"
     borderopacity="1.0"
     inkscape:pageopacity="0.0"
     inkscape:pageshadow="2"
     inkscape:zoom="0.35"
     inkscape:cx="-183.57143"
     inkscape:cy="520"
     inkscape:document-units="px"
     inkscape:current-layer="layer1"
     showgrid="false"
     inkscape:window-width="1842"
     inkscape:window-height="1057"
     inkscape:window-x="70"
     inkscape:window-y="-8"
     inkscape:window-maximized="1" />
  <metadata
     id="metadata7">
    <rdf:RDF>
      <cc:Work
         rdf:about="">
        <dc:format>image/svg+xml</dc:format>
        <dc:type
           rdf:resource="http://purl.org/dc/dcmitype/StillImage" />
        <dc:title></dc:title>
      </cc:Work>
    </rdf:RDF>
  </metadata>
  <g
     inkscape:label="Layer 1"
     inkscape:groupmode="layer"
     id="layer1">
    <rect
       style="fill:#000000;fill-opacity:1;stroke:none"
       id="rect3031"
       width="2528.5715"
       height="1540"
       x="-1894.2856"
       y="-459.06638"
       ry="88.505745" />
    <g
       id="g3051">
      <path
         transform="translate(1420,-85.714286)"
         d="m -899.99997,-11.923532 a 318.57144,318.57144 0 1 1 -637.14293,0 318.57144,318.57144 0 1 1 637.14293,0 z"
         sodipodi:ry="318.57144"
         sodipodi:rx="318.57144"
         sodipodi:cy="-11.923532"
         sodipodi:cx="-1218.5714"
         id="path3005"
         style="fill:#5b868f;fill-opacity:1;stroke:none"
         sodipodi:type="arc" />
      <path
         inkscape:connector-curvature="0"
         id="rect2985"
         d="m 33.74482,-265.31054 c -22.385,22.38502 -22.3849,58.40197 0,80.78695 l 86.8858,86.885735 -86.8858,86.88575 c -22.385,22.38502 -22.3849,58.401968 0,80.786948 22.385,22.384984 58.4241,22.407114 80.8091,0.0221 l 86.8857,-86.885738 86.8637,86.863648 c 22.385,22.384984 58.424,22.407114 80.809,0.0221 22.385,-22.38495 22.385,-58.446128 0,-80.831098 l -86.8637,-86.86365 86.8637,-86.863685 c 22.385,-22.38495 22.385,-58.44616 0,-80.83113 -22.385,-22.38498 -58.4241,-22.36286 -80.809,0.0221 l -86.8637,86.86368 -86.8858,-86.88575 c -22.3849,-22.38497 -58.424,-22.36288 -80.809,0.0221 z"
         style="fill:#ffffff;fill-opacity:1;stroke:none" />
    </g>
    <path
       id="rect2985-4"
       style="fill:#ffffff;fill-opacity:1;stroke:none"
       d="m -1632.0324,683.18873 c -3.5133,3.51335 -3.5133,9.16623 0,12.67957 l 13.6368,13.63677 -13.6368,13.63678 c -3.5133,3.51335 -3.5133,9.16622 0,12.67956 3.5133,3.51334 9.1697,3.51681 12.683,0.003 l 13.6368,-13.63677 13.6333,13.6333 c 3.5134,3.51334 9.1697,3.51681 12.683,0.003 3.5134,-3.51333 3.5134,-9.17315 0,-12.6865 l -13.6333,-13.6333 13.6333,-13.63331 c 3.5134,-3.51334 3.5134,-9.17317 0,-12.6865 -3.5133,-3.51334 -9.1697,-3.50987 -12.683,0.003 l -13.6333,13.63332 -13.6368,-13.63678 c -3.5133,-3.51333 -9.1697,-3.50987 -12.683,0.003 z m 76.3181,26.31636 c 0,27.61423 -22.3858,49.99999 -50,49.99999 -27.6142,0 -50,-22.38576 -50,-49.99999 0,-27.61425 22.3858,-50.00001 50,-50.00001 27.6142,0 50,22.38576 50,50.00001 z"
       inkscape:connector-curvature="0"
       inkscape:export-filename="D:\Portable\Files\Repos\ny-coder\res\ico\close-tab-hover.png"
       inkscape:export-xdpi="100"
       inkscape:export-ydpi="100" />
    <path
       id="rect2985-4-0"
       style="fill:#b3b3b3;fill-opacity:1;stroke:none"
       d="m -1749.1753,683.1887 c -3.5133,3.51335 -3.5133,9.16623 0,12.67957 l 13.6368,13.63677 -13.6368,13.63679 c -3.5133,3.51334 -3.5133,9.16621 0,12.67955 3.5134,3.51334 9.1697,3.51681 12.6831,0.003 l 13.6367,-13.63677 13.6333,13.6333 c 3.5134,3.51334 9.1697,3.51681 12.6831,0.003 3.5133,-3.51332 3.5133,-9.17315 0,-12.68649 l -13.6333,-13.6333 13.6333,-13.63332 c 3.5133,-3.51333 3.5133,-9.17317 0,-12.6865 -3.5134,-3.51334 -9.1697,-3.50987 -12.6831,0.003 l -13.6333,13.63331 -13.6367,-13.63678 c -3.5134,-3.51333 -9.1697,-3.50987 -12.6831,0.003 z m 76.3181,26.31636 c 0,27.61423 -22.3858,49.99999 -50,49.99999 -27.6142,0 -50,-22.38576 -50,-49.99999 0,-27.61424 22.3858,-50.00001 50,-50.00001 27.6142,0 50,22.38577 50,50.00001 z"
       inkscape:connector-curvature="0"
       inkscape:export-filename="D:\Portable\Files\Repos\ny-coder\res\ico\close-tab-normal.png"
       inkscape:export-xdpi="100"
       inkscape:export-ydpi="100" />
  </g>
</svg>
