<?xml version="1.0" encoding="UTF-8" standalone="no"?>
<!-- Created with Inkscape (http://www.inkscape.org/) -->

<svg
   xmlns:dc="http://purl.org/dc/elements/1.1/"
   xmlns:cc="http://creativecommons.org/ns#"
   xmlns:rdf="http://www.w3.org/1999/02/22-rdf-syntax-ns#"
   xmlns:svg="http://www.w3.org/2000/svg"
   xmlns="http://www.w3.org/2000/svg"
   xmlns:sodipodi="http://sodipodi.sourceforge.net/DTD/sodipodi-0.dtd"
   xmlns:inkscape="http://www.inkscape.org/namespaces/inkscape"
   width="744.09448819"
   height="1052.3622047"
   id="svg2"
   version="1.1"
   inkscape:version="0.48.5 r10040"
   sodipodi:docname="icons.svg">
  <defs
     id="defs4" />
  <sodipodi:namedview
     id="base"
     pagecolor="#ffffff"
     bordercolor="#666666"
     borderopacity="1.0"
     inkscape:pageopacity="0.0"
     inkscape:pageshadow="2"
     inkscape:zoom="2.2988634"
     inkscape:cx="-1691.8243"
     inkscape:cy="495.5134"
     inkscape:document-units="px"
     inkscape:current-layer="layer1"
     showgrid="false"
     inkscape:window-width="1842"
     inkscape:window-height="1057"
     inkscape:window-x="70"
     inkscape:window-y="-8"
     inkscape:window-maximized="1"
     showguides="true"
     inkscape:guide-bbox="true">
    <sodipodi:guide
       orientation="0,1"
       position="-738.57143,1205.7143"
       id="guide3058" />
    <sodipodi:guide
       orientation="1,0"
       position="-878.57143,1448.5714"
       id="guide3060" />
    <sodipodi:guide
       orientation="0,1"
       position="387.89858,3343.6049"
       id="guide3341" />
    <sodipodi:guide
       orientation="0,1"
       position="503.05596,3361.7877"
       id="guide3343" />
    <sodipodi:guide
       orientation="1,0"
       position="257.08382,3517.8562"
       id="guide3345" />
    <sodipodi:guide
       orientation="1,0"
       position="240.4163,3596.6481"
       id="guide3347" />
  </sodipodi:namedview>
  <metadata
     id="metadata7">
    <rdf:RDF>
      <cc:Work
         rdf:about="">
        <dc:format>image/svg+xml</dc:format>
        <dc:type
           rdf:resource="http://purl.org/dc/dcmitype/StillImage" />
        <dc:title />
      </cc:Work>
    </rdf:RDF>
  </metadata>
  <g
     inkscape:label="Layer 1"
     inkscape:groupmode="layer"
     id="layer1">
    <rect
       style="fill:#0000ff;fill-opacity:1;stroke:#999999;stroke-width:20;stroke-miterlimit:4;stroke-opacity:1;stroke-dasharray:none;stroke-dashoffset:0"
       id="rect3662"
       width="1451.4286"
       height="1720"
       x="-3931.4285"
       y="-587.63782"
       ry="80" />
    <rect
       style="fill:#000000;fill-opacity:1;stroke:none"
       id="rect3031"
       width="2528.5715"
       height="2427.1428"
       x="-1894.2856"
       y="-459.06638"
       ry="139.49097" />
    <g
       id="g3051"
       transform="translate(90,-7.1428571)">
      <path
         transform="translate(1420,-85.714286)"
         d="m -899.99997,-11.923532 c 0,175.942152 -142.62933,318.571442 -318.57143,318.571442 -175.9422,0 -318.5715,-142.62929 -318.5715,-318.571442 0,-175.942148 142.6293,-318.571438 318.5715,-318.571438 175.9421,0 318.57143,142.62929 318.57143,318.571438 z"
         sodipodi:ry="318.57144"
         sodipodi:rx="318.57144"
         sodipodi:cy="-11.923532"
         sodipodi:cx="-1218.5714"
         id="path3005"
         style="fill:#5b868f;fill-opacity:1;stroke:none"
         sodipodi:type="arc" />
      <path
         inkscape:connector-curvature="0"
         id="rect2985"
         d="m 33.74482,-265.31054 c -22.385,22.38502 -22.3849,58.40197 0,80.78695 l 86.8858,86.885735 -86.8858,86.88575 c -22.385,22.38502 -22.3849,58.401968 0,80.786948 22.385,22.384984 58.4241,22.407114 80.8091,0.0221 l 86.8857,-86.885738 86.8637,86.863648 c 22.385,22.384984 58.424,22.407114 80.809,0.0221 22.385,-22.38495 22.385,-58.446128 0,-80.831098 l -86.8637,-86.86365 86.8637,-86.863685 c 22.385,-22.38495 22.385,-58.44616 0,-80.83113 -22.385,-22.38498 -58.4241,-22.36286 -80.809,0.0221 l -86.8637,86.86368 -86.8858,-86.88575 c -22.3849,-22.38497 -58.424,-22.36288 -80.809,0.0221 z"
         style="fill:#ffffff;fill-opacity:1;stroke:none" />
    </g>
    <path
       id="rect2985-4"
       style="fill:#ffffff;fill-opacity:1;stroke:none"
       d="m -1632.0324,683.18873 c -3.5133,3.51335 -3.5133,9.16623 0,12.67957 l 13.6368,13.63677 -13.6368,13.63678 c -3.5133,3.51335 -3.5133,9.16622 0,12.67956 3.5133,3.51334 9.1697,3.51681 12.683,0.003 l 13.6368,-13.63677 13.6333,13.6333 c 3.5134,3.51334 9.1697,3.51681 12.683,0.003 3.5134,-3.51333 3.5134,-9.17315 0,-12.6865 l -13.6333,-13.6333 13.6333,-13.63331 c 3.5134,-3.51334 3.5134,-9.17317 0,-12.6865 -3.5133,-3.51334 -9.1697,-3.50987 -12.683,0.003 l -13.6333,13.63332 -13.6368,-13.63678 c -3.5133,-3.51333 -9.1697,-3.50987 -12.683,0.003 z m 76.3181,26.31636 c 0,27.61423 -22.3858,49.99999 -50,49.99999 -27.6142,0 -50,-22.38576 -50,-49.99999 0,-27.61425 22.3858,-50.00001 50,-50.00001 27.6142,0 50,22.38576 50,50.00001 z"
       inkscape:connector-curvature="0"
       inkscape:export-filename="D:\Portable\Files\Repos\ny-coder\res\ico\close-tab-hover.png"
       inkscape:export-xdpi="100"
       inkscape:export-ydpi="100" />
    <g
       id="g3200">
      <path
         id="rect2985-4-0"
         d="m -1672.8572,709.50506 c 0,27.61423 -22.3858,49.99999 -50,49.99999 -27.6142,0 -50,-22.38576 -50,-49.99999 0,-27.61424 22.3858,-50.00001 50,-50.00001 27.6142,0 50,22.38577 50,50.00001 z"
         style="fill:none;stroke:none"
         inkscape:connector-curvature="0" />
      <path
         id="path3057"
         d="m -1749.1753,683.1887 c -3.5133,3.51335 -3.5133,9.16623 0,12.67957 l 13.6368,13.63677 -13.6368,13.63679 c -3.5133,3.51334 -3.5133,9.16621 0,12.67955 3.5134,3.51334 9.1697,3.51681 12.6831,0.003 l 13.6367,-13.63677 13.6333,13.6333 c 3.5134,3.51334 9.1697,3.51681 12.6831,0.003 3.5133,-3.51332 3.5133,-9.17315 0,-12.68649 l -13.6333,-13.6333 13.6333,-13.63332 c 3.5133,-3.51333 3.5133,-9.17317 0,-12.6865 -3.5134,-3.51334 -9.1697,-3.50987 -12.6831,0.003 l -13.6333,13.63331 -13.6367,-13.63678 c -3.5134,-3.51333 -9.1697,-3.50987 -12.6831,0.003 z"
         style="fill:#b3b3b3;fill-opacity:1;stroke:none"
         inkscape:connector-curvature="0" />
    </g>
    <path
       sodipodi:type="arc"
       style="fill:#5b868f;fill-opacity:1;stroke:none"
       id="path3005-7"
       sodipodi:cx="-1218.5714"
       sodipodi:cy="-11.923532"
       sodipodi:rx="318.57144"
       sodipodi:ry="318.57144"
       d="m -899.99997,-11.923532 a 318.57144,318.57144 0 1 1 -637.14293,0 318.57144,318.57144 0 1 1 637.14293,0 z"
       transform="translate(71.232769,-155.87128)" />
    <path
       style="fill:#ffffff;fill-opacity:1;stroke:none"
       d="m -1147.2686,69.345841 c 31.6571,5e-6 57.1249,-25.46793 57.125,-57.125033 l -10e-5,-122.874988 c -0.4874,-43.72927 -1.1013,-49.63148 10e-5,-114.28128 l -10e-5,-122.84378 c 0,-31.65717 -25.4678,-57.15623 -57.125,-57.15622 -31.6571,-4e-5 -57.1562,25.49907 -57.1562,57.15622 l 10e-5,122.84376 c 1.2246,39.4432 -0.5498,70.41684 0,114.2812 l 0,122.875094 c -10e-5,31.657111 25.499,57.124939 57.1561,57.125004 z"
       id="rect2985-40"
       inkscape:connector-curvature="0"
       sodipodi:nodetypes="csccsssccscc" />
    <path
       style="fill:#ffffff;fill-opacity:1;stroke:none"
       d="m -947.34257,-40.375855 c -17.0094,26.699379 -52.17264,34.4948158 -78.87193,17.485468 l -103.6317,-66.02057 c -36.6191,-23.906823 -41.2672,-27.595853 -96.384,-61.403303 l -103.6054,-66.00401 c -26.6994,-17.00938 -34.5212,-52.18932 -17.5117,-78.88871 17.0093,-26.69937 52.2158,-34.50443 78.9151,-17.49506 l 103.6055,66.00394 c 32.608,22.22577 59.6841,37.3713 96.3837,61.40337 l 103.63176,66.02058 c 26.69935,17.0093 34.47807,52.198913 17.46872,78.898291 z"
       id="rect2985-40-9"
       inkscape:connector-curvature="0"
       sodipodi:nodetypes="csccsssccscc" />
    <path
       style="fill:#ffffff;fill-opacity:1;stroke:none"
       d="m -947.34256,-295.21377 c -17.0094,-26.69938 -52.1726,-34.49481 -78.87194,-17.48546 l -103.6317,66.02057 c -36.6191,23.90682 -41.2672,27.59585 -96.384,61.4033 l -103.6054,66.00401 c -26.6994,17.00938 -34.5212,52.189321 -17.5117,78.888706 17.0093,26.69937 52.2158,34.5044298 78.9151,17.49506 l 103.6055,-66.003935 c 32.608,-22.225771 59.6841,-37.371301 96.3837,-61.403371 l 103.63174,-66.02058 c 26.6994,-17.0093 34.4781,-52.19891 17.4688,-78.89829 z"
       id="rect2985-40-9-8"
       inkscape:connector-curvature="0"
       sodipodi:nodetypes="csccsssccscc" />
    <path
       sodipodi:type="arc"
       style="fill:#5b868f;fill-opacity:1;stroke:none"
       id="path3005-7-8"
       sodipodi:cx="-1218.5714"
       sodipodi:cy="-11.923532"
       sodipodi:rx="318.57144"
       sodipodi:ry="318.57144"
       d="m -899.99997,-11.923532 a 318.57144,318.57144 0 1 1 -637.14293,0 318.57144,318.57144 0 1 1 637.14293,0 z"
       transform="translate(507.14284,644.28571)" />
    <g
       id="g3125"
       transform="translate(43.09627,-55.000007)">
      <path
         sodipodi:nodetypes="csccsssccscc"
         inkscape:connector-curvature="0"
         id="rect2985-40-2"
         d="m -868.35859,923.50283 c 31.6571,10e-6 57.1249,-25.46793 57.125,-57.12503 l -10e-5,-122.87499 c -0.4874,-43.72927 -1.1013,-49.63148 10e-5,-114.28128 l -10e-5,-122.84378 c 0,-31.65717 -25.4678,-57.15622 -57.125,-57.15621 -31.6571,-4e-5 -57.1562,25.49906 -57.1562,57.15621 l 1e-4,122.84376 c 1.2246,39.4432 -0.5498,70.41684 0,114.2812 l 0,122.8751 c -1e-4,31.65711 25.499,57.12494 57.1561,57.125 z"
         style="fill:#ffffff;fill-opacity:1;stroke:none" />
      <path
         sodipodi:nodetypes="csccsssccscc"
         inkscape:connector-curvature="0"
         id="rect2985-40-9-8-5"
         d="m -516.43254,656.94322 c -17.0094,-26.69938 -52.1726,-34.49481 -78.87194,-17.48546 l -103.6317,66.02057 c -36.6191,23.90682 -41.2672,27.59585 -96.384,61.4033 l -103.6054,66.00401 c -26.6994,17.00938 -34.5212,52.18932 -17.5117,78.88871 17.0093,26.69937 52.2158,34.50443 78.9151,17.49506 l 103.6055,-66.00394 c 32.608,-22.22577 59.6841,-37.3713 96.3837,-61.40337 l 103.63174,-66.02058 c 26.6994,-17.0093 34.4781,-52.19891 17.4688,-78.89829 z"
         style="fill:#ffffff;fill-opacity:1;stroke:none" />
      <path
         sodipodi:nodetypes="csccsssccscc"
         inkscape:connector-curvature="0"
         id="rect2985-40-9-4"
         d="m -516.43254,717.78115 c -17.0094,26.69938 -52.17264,34.49481 -78.87193,17.48547 l -103.6317,-66.02057 c -36.6191,-23.90683 -41.2672,-27.59586 -96.384,-61.40331 l -103.6054,-66.00401 c -26.6994,-17.00938 -34.5212,-52.18932 -17.5117,-78.88871 17.0093,-26.69937 52.2158,-34.50443 78.9151,-17.49506 l 103.6055,66.00394 c 32.608,22.22577 59.6841,37.3713 96.3837,61.40337 l 103.63176,66.02058 c 26.69935,17.0093 34.47807,52.19892 17.46872,78.89829 z"
         style="fill:#ffffff;fill-opacity:1;stroke:none" />
    </g>
    <path
       id="rect2985-40-2-7"
       style="fill:#ffffff;fill-opacity:1;stroke:none"
       d="m -1625.2245,802.985 c -2.8765,0.0754 -5.664,1.53524 -7.3325,4.15428 -1.1354,1.78219 -1.5612,3.80642 -1.3586,5.74832 -0.041,0.35033 -0.064,0.7075 -0.064,1.06924 l 0,19.28045 c 0.1922,6.1906 -0.086,11.0519 0,17.9365 l 0,19.2853 c 0,0.4066 0.027,0.8048 0.079,1.1967 -0.2495,1.997 0.1731,4.0921 1.3439,5.9298 2.6696,4.1905 8.1988,5.4114 12.3893,2.7418 l 16.2591,-10.3588 c 11.0548,-7.10493 19.7969,-12.61173 31.395,-19.9965 2.6593,-1.6941 4.1173,-4.5375 4.1494,-7.4601 0.068,-3.0266 -1.3994,-6.0073 -4.1494,-7.7592 -10.1796,-6.80443 -22.4434,-13.92824 -31.395,-19.99649 l -16.2591,-10.36365 c -1.5714,-1.00111 -3.3308,-1.4529 -5.0568,-1.40765 z m 68.0816,39.37719 c 0,27.6142 -22.3858,50 -50,50 -27.6142,0 -50,-22.3858 -50,-50 0,-27.61424 22.3858,-50 50,-50 27.6142,0 50,22.38576 50,50 z"
       inkscape:connector-curvature="0"
       sodipodi:nodetypes="cscsccscccccccccccsssss" />
    <g
       id="g3401">
      <path
         id="path3192"
         d="M -1747.75 799.03125 C -1750.6265 799.10665 -1753.394 800.56846 -1755.0625 803.1875 C -1756.1979 804.96969 -1756.6401 806.9956 -1756.4375 808.9375 C -1756.4785 809.28783 -1756.5 809.63826 -1756.5 810 L -1756.5 829.28125 C -1756.3078 835.47185 -1756.586 840.33415 -1756.5 847.21875 L -1756.5 866.5 C -1756.5 866.9066 -1756.4582 867.2956 -1756.4062 867.6875 C -1756.6557 869.6845 -1756.2333 871.7873 -1755.0625 873.625 C -1752.3929 877.8155 -1746.878 879.0446 -1742.6875 876.375 L -1726.4375 866 C -1721.3196 862.5117 -1717.0725 860.1468 -1711.3125 856.375 L -1695.0312 846 C -1692.3719 844.3059 -1690.9071 841.4851 -1690.875 838.5625 C -1690.807 835.5359 -1692.2812 832.53315 -1695.0312 830.78125 L -1711.3125 820.4375 C -1717.0725 816.66564 -1721.3196 814.26961 -1726.4375 810.78125 L -1742.6875 800.4375 C -1744.2589 799.43639 -1746.024 798.986 -1747.75 799.03125 z M -1738.5625 824.34375 L -1736.0625 825.90625 C -1727.4119 831.21235 -1726.6849 831.8103 -1720.9375 835.5625 L -1716.4688 838.40625 L -1720.9375 841.25 C -1726.6849 845.0022 -1727.4119 845.5689 -1736.0625 850.875 L -1738.5625 852.46875 L -1738.5625 847.21875 C -1738.6395 840.35535 -1738.7354 839.42805 -1738.5625 829.28125 L -1738.5625 824.34375 z "
         style="fill:#b3b3b3;fill-opacity:1;stroke:none" />
      <path
         id="rect2985-40-2-7-5"
         d="m -1679.6614,838.40083 c 0,27.6142 -22.3858,50 -50,50 -27.6142,0 -50,-22.3858 -50,-50 0,-27.61424 22.3858,-50 50,-50 27.6142,0 50,22.38576 50,50 z"
         style="fill:none;stroke:none"
         inkscape:connector-curvature="0" />
    </g>
    <g
       id="g3309"
       transform="translate(505.71432,-94.285714)">
      <path
         transform="translate(152.8571,1514.2857)"
         d="m -899.99997,-11.923532 c 0,175.942152 -142.62933,318.571442 -318.57143,318.571442 -175.9422,0 -318.5715,-142.62929 -318.5715,-318.571442 0,-175.942148 142.6293,-318.571438 318.5715,-318.571438 175.9421,0 318.57143,142.62929 318.57143,318.571438 z"
         sodipodi:ry="318.57144"
         sodipodi:rx="318.57144"
         sodipodi:cy="-11.923532"
         sodipodi:cx="-1218.5714"
         id="path3005-76"
         style="fill:#5b868f;fill-opacity:1;stroke:none"
         sodipodi:type="arc" />
      <g
         transform="translate(1.3867116e-5,6.091324e-5)"
         id="g3303">
        <path
           style="fill:#ffffff;fill-opacity:1;stroke:none"
           d="m -886.08385,1265.2217 c 31.6572,0 57.1249,25.4679 57.125,57.125 l -10e-5,122.875 c 1.1845,65.2214 -0.8164,39.5299 0,114.2812 l -1e-4,122.8438 c 0,31.6572 -25.4678,57.1563 -57.125,57.1562 -31.6573,0 -57.1564,-25.4991 -57.1563,-57.1562 l 0,-122.8438 c -2.169,-54.1307 -2.2094,-54.6822 0,-114.2814 l 0,-122.8751 c 0,-31.657 25.499,-57.1249 57.1562,-57.125 z"
           id="rect2985-1-2"
           inkscape:connector-curvature="0"
           sodipodi:nodetypes="csccsssccscc" />
        <path
           style="fill:#ffffff;fill-opacity:1;stroke:none"
           d="m -1302.8548,1322.7316 c 0,-31.6572 25.4679,-57.1249 57.125,-57.125 l 122.875,10e-5 c 65.2214,-1.1845 39.5299,0.8164 114.2812,0 l 122.84382,10e-5 c 31.6571,0 57.1563,25.4678 57.1562,57.125 0,31.6572 -25.4991,57.1563 -57.1562,57.1562 l -122.84382,0 c -54.1307,2.169 -54.6822,2.2094 -114.2814,0 l -122.8751,0 c -31.657,0 -57.1249,-25.499 -57.125,-57.1561 z"
           id="rect2985-1-4"
           inkscape:connector-curvature="0"
           sodipodi:nodetypes="csccsssccscc" />
        <path
           style="fill:#ffffff;fill-opacity:1;stroke:none"
           d="m -1245.3448,1265.2217 c -31.6572,0 -57.1249,25.4679 -57.125,57.125 l 10e-5,122.875 c -1.1845,65.2214 0.8164,39.5299 0,114.2812 l 1e-4,122.8439 c 0,31.6571 25.4678,57.1562 57.125,57.1561 31.6572,0 57.1563,-25.4991 57.1562,-57.1562 l 0,-122.8438 c 2.169,-54.1307 2.2094,-54.6822 0,-114.2814 l 0,-122.8751 c 0,-31.657 -25.499,-57.1249 -57.1561,-57.125 z"
           id="rect2985-1"
           inkscape:connector-curvature="0"
           sodipodi:nodetypes="csccsssccscc" />
        <path
           style="fill:#ffffff;fill-opacity:1;stroke:none"
           d="m -1302.8548,1681.9926 c 0,31.6572 25.4679,57.1249 57.125,57.125 l 122.875,-10e-5 c 65.2214,1.1845 39.5299,-0.8164 114.2812,0 l 122.84382,-10e-5 c 31.65718,0 57.1563,-25.4678 57.15623,-57.125 0,-31.6572 -25.49912,-57.1563 -57.15623,-57.1562 l -122.84382,0 c -54.1307,-2.169 -54.6822,-2.2094 -114.2814,0 l -122.8751,0 c -31.657,0 -57.1249,25.499 -57.125,57.1561 z"
           id="rect2985-1-3"
           inkscape:connector-curvature="0"
           sodipodi:nodetypes="csccsssccscc" />
      </g>
    </g>
    <path
       id="rect2985-1-2-6"
       style="fill:#ffffff;fill-opacity:1;stroke:none"
       d="m -1636.7659,927.9988 c -2.3554,0 -4.4904,0.8997 -6.0868,2.3739 -0.014,0.012 -0.026,0.027 -0.039,0.039 -0.1781,0.1665 -0.3511,0.3395 -0.515,0.5199 -1.4786,1.5973 -2.3837,3.7372 -2.3837,6.0966 0,0.3493 0.02,0.6912 0.059,1.03 l 0,18.1915 c -0.1859,10.2366 0.1282,6.2043 0,17.9365 l 0,18.1916 c -0.038,0.3391 -0.059,0.6851 -0.059,1.0349 0,2.50199 1.0127,4.75799 2.6534,6.38099 0.068,0.069 0.1404,0.1345 0.2109,0.2011 0.026,0.024 0.053,0.045 0.078,0.069 1.5962,1.4739 3.7278,2.3739 6.0819,2.3738 0.3497,0 0.6957,-0.02 1.0348,-0.059 l 18.1916,0 c 10.2365,0.1859 6.2043,-0.1281 17.9365,0 l 18.1916,0 c 0.3387,0.039 0.6855,0.059 1.0349,0.059 2.3593,10e-5 4.4943,-0.9039 6.0916,-2.3836 0.096,-0.087 0.1877,-0.17391 0.2796,-0.26491 0.01,-0.01 0.02,-0.02 0.029,-0.029 0.082,-0.082 0.1617,-0.1701 0.2403,-0.2551 1.4793,-1.5972 2.3837,-3.7328 2.3837,-6.09159 0,-0.3498 -0.02,-0.6958 -0.059,-1.0349 l 0,-18.1916 c -0.1282,-11.7322 0.1859,-7.6999 0,-17.9365 l 0,-18.1915 c 0.038,-0.3388 0.059,-0.6807 0.059,-1.03 0,-2.3591 -0.9042,-4.4993 -2.3837,-6.0966 -0.038,-0.042 -0.079,-0.082 -0.1177,-0.1226 -0.041,-0.043 -0.081,-0.086 -0.1226,-0.1275 -0.1008,-0.1028 -0.2033,-0.2014 -0.309,-0.2992 -1.5973,-1.4786 -3.7323,-2.3837 -6.0916,-2.3837 -0.3528,0 -0.7028,0.024 -1.0447,0.064 l -18.1818,0 c -11.7322,0.1281 -7.7,-0.186 -17.9365,0 l -18.1818,0 c -0.3423,-0.039 -0.6915,-0.064 -1.0446,-0.064 z m 78.1943,37.2205 c 0,27.6142 -22.3858,50 -50,50 -27.6142,0 -50,-22.3858 -50,-50 0,-27.6142 22.3858,-50 50,-50 27.6142,0 50,22.3858 50,50 z"
       inkscape:connector-curvature="0"
       sodipodi:nodetypes="ccccsccccscccccccccccscsccccsccccsccccccsssss" />
    <g
       id="g4258">
      <path
         id="path3388"
         d="M -1749.625 929.9375 C -1751.9803 929.9375 -1754.1223 930.80709 -1755.7188 932.28125 C -1755.7327 932.29365 -1755.737 932.33135 -1755.75 932.34375 C -1755.928 932.51021 -1756.0861 932.66332 -1756.25 932.84375 C -1757.7286 934.44104 -1758.6562 936.57818 -1758.6562 938.9375 C -1758.6562 939.28685 -1758.6327 939.63 -1758.5938 939.96875 L -1758.5938 958.1875 C -1758.7796 968.42404 -1758.4657 964.39275 -1758.5938 976.125 L -1758.5938 994.3125 C -1758.6327 994.65164 -1758.6562 994.99399 -1758.6562 995.34375 C -1758.6562 997.84573 -1757.6408 1000.0958 -1756 1001.7188 C -1755.932 1001.7877 -1755.8518 1001.8396 -1755.7812 1001.9062 C -1755.7552 1001.9303 -1755.7447 1001.976 -1755.7188 1002 C -1754.1227 1003.4739 -1751.9791 1004.375 -1749.625 1004.375 C -1749.2752 1004.375 -1748.9329 1004.3515 -1748.5938 1004.3125 L -1730.4062 1004.3125 C -1720.1698 1004.4985 -1724.2011 1004.1844 -1712.4688 1004.3125 L -1694.2812 1004.3125 C -1693.9425 1004.3515 -1693.5681 1004.375 -1693.2188 1004.375 C -1690.8594 1004.375 -1688.7535 1003.4485 -1687.1562 1001.9688 C -1687.0602 1001.8818 -1686.9669 1001.8097 -1686.875 1001.7188 L -1686.8438 1001.6875 C -1686.7617 1001.6055 -1686.6725 1001.5225 -1686.5938 1001.4375 C -1685.1146 999.84027 -1684.2188 997.7026 -1684.2188 995.34375 C -1684.2188 994.99399 -1684.2423 994.65164 -1684.2812 994.3125 L -1684.2812 976.125 C -1684.4093 964.39275 -1684.0954 968.42404 -1684.2812 958.1875 L -1684.2812 939.96875 C -1684.2423 939.63 -1684.2188 939.28685 -1684.2188 938.9375 C -1684.2188 936.57842 -1685.1142 934.44099 -1686.5938 932.84375 C -1686.6318 932.80215 -1686.68 932.75957 -1686.7188 932.71875 C -1686.7597 932.67625 -1686.8021 932.63536 -1686.8438 932.59375 C -1686.9445 932.49098 -1687.0507 932.4103 -1687.1562 932.3125 C -1688.7535 930.83392 -1690.8595 929.9375 -1693.2188 929.9375 C -1693.5714 929.9375 -1693.9394 929.9607 -1694.2812 930 L -1712.4688 930 C -1724.201 930.12813 -1720.1698 929.81409 -1730.4062 930 L -1748.5625 930 C -1748.9048 929.9607 -1749.2718 929.9375 -1749.625 929.9375 z M -1740.6562 947.9375 L -1730.4062 947.9375 C -1721.0521 948.28427 -1720.9647 948.27793 -1712.4688 947.9375 L -1702.2188 947.9375 L -1702.2188 958.1875 C -1702.5655 967.54163 -1702.5592 967.62917 -1702.2188 976.125 L -1702.2188 986.375 L -1712.4688 986.375 C -1720.9646 986.03457 -1721.0521 986.02823 -1730.4062 986.375 L -1740.6562 986.375 L -1740.6562 976.125 C -1740.3158 967.62917 -1740.3094 967.54163 -1740.6562 958.1875 L -1740.6562 947.9375 z "
         style="fill:#b3b3b3;fill-opacity:1;stroke:none" />
      <path
         id="rect2985-1-2-6-6"
         d="m -1671.4286,967.14267 c 0,27.61423 -22.3858,50.00003 -50,50.00003 -27.6143,0 -50,-22.3858 -50,-50.00003 0,-27.61424 22.3857,-50 50,-50 27.6142,0 50,22.38576 50,50 z"
         style="fill:none;stroke:none"
         inkscape:connector-curvature="0" />
    </g>
    <g
       id="g3470">
      <path
         transform="translate(-51.42859,1488.5714)"
         d="m -899.99997,-11.923532 a 318.57144,318.57144 0 1 1 -637.14293,0 318.57144,318.57144 0 1 1 637.14293,0 z"
         sodipodi:ry="318.57144"
         sodipodi:rx="318.57144"
         sodipodi:cy="-11.923532"
         sodipodi:cx="-1218.5714"
         id="path3005-76-8"
         style="fill:#5b868f;fill-opacity:1;stroke:none"
         sodipodi:type="arc" />
      <g
         transform="translate(-4.4932011,-7.1428315)"
         id="g3465">
        <path
           style="fill:#ffffff;fill-opacity:1;stroke:none"
           d="m -1502.6473,1483.1466 c 0,-31.6572 25.468,-57.1249 57.125,-57.125 l 122.875,10e-5 c 65.2214,-1.1845 39.5299,0.8164 114.2812,0 l 122.8438,10e-5 c 31.6572,0 57.1563,25.4678 57.1562,57.125 0,31.6573 -25.4991,57.1564 -57.1562,57.1563 l -122.8438,0 c -54.1307,2.169 -54.6822,2.2094 -114.2814,0 l -122.8751,0 c -31.657,0 -57.1249,-25.499 -57.125,-57.1562 z"
           id="rect2985-1-2-2"
           inkscape:connector-curvature="0"
           sodipodi:nodetypes="csccsssccscc" />
        <path
           style="fill:#ffffff;fill-opacity:1;stroke:none"
           d="m -1502.6473,1338.4459 c 0,-31.6572 25.4679,-57.1249 57.125,-57.125 l 122.875,10e-5 c 65.2214,-1.1845 39.5299,0.8164 114.2812,0 l 122.8438,10e-5 c 31.6571,0 57.1564,25.4678 57.1562,57.125 0,31.6572 -25.4991,57.1563 -57.1562,57.1562 l -122.8438,0 c -54.1307,2.169 -54.6822,2.2094 -114.2814,0 l -122.8751,0 c -31.657,0 -57.1249,-25.499 -57.125,-57.1561 z"
           id="rect2985-1-4-7"
           inkscape:connector-curvature="0"
           sodipodi:nodetypes="csccsssccscc" />
        <path
           style="fill:#ffffff;fill-opacity:1;stroke:none"
           d="m -1502.6473,1629.1355 c 0,31.6572 25.4679,57.1249 57.125,57.125 l 122.875,-1e-4 c 65.2214,1.1845 39.5299,-0.8164 114.2812,0 l 122.8438,-10e-5 c 31.6572,0 57.1563,-25.4678 57.1563,-57.125 0,-31.6572 -25.4992,-57.1563 -57.1563,-57.1562 l -122.8438,0 c -54.1307,-2.169 -54.6822,-2.2094 -114.2814,0 l -122.8751,0 c -31.657,0 -57.1249,25.499 -57.125,57.1561 z"
           id="rect2985-1-3-5"
           inkscape:connector-curvature="0"
           sodipodi:nodetypes="csccsssccscc" />
      </g>
    </g>
    <path
       id="rect2985-1-2-2-2"
       style="fill:#ffffff;fill-opacity:1;stroke:none"
       d="m -1610.6421,1054.8078 c -1.2448,0 -2.9096,0.017 -5.4687,0.064 l -19.2853,0 c -4.9686,0 -8.9658,3.9972 -8.9658,8.9658 0,4.9686 3.9972,8.9707 8.9658,8.9707 l 19.2853,0 c 9.3541,0.3468 9.4407,0.3405 17.9365,0 l 19.2804,0 c 4.9686,0 8.9707,-4.0021 8.9707,-8.9707 10e-5,-4.9686 -4.0021,-8.9658 -8.9707,-8.9658 l -19.2804,0 c -8.7992,0.096 -8.7334,-0.06 -12.4678,-0.064 z m 0,22.7137 c -1.2448,0 -2.9096,0.012 -5.4687,0.059 l -19.2853,0 c -4.9686,0 -8.9658,3.9972 -8.9658,8.9658 0,4.9686 3.9972,8.9707 8.9658,8.9707 l 19.2853,0 c 9.3541,0.3468 9.4407,0.3405 17.9365,0 l 19.2804,0 c 4.9686,0 8.9707,-4.0021 8.9707,-8.9707 0,-4.9686 -4.0021,-8.9658 -8.9707,-8.9658 l -19.2804,0 c -8.7992,0.096 -8.7334,-0.055 -12.4678,-0.059 z m 3.8208,22.7088 c -2.2529,0 -4.6124,0.087 -9.2895,0.26 l -19.2853,0 c -4.9686,0 -8.9658,4.0021 -8.9658,8.9707 0,4.9686 3.9972,8.9658 8.9658,8.9658 l 19.2853,0 c 10.2365,0.1859 6.2042,-0.1281 17.9365,0 l 19.2804,0 c 4.9686,0 8.9707,-3.9972 8.9707,-8.9658 0,-4.9686 -4.0021,-8.9707 -8.9707,-8.9707 l -19.2804,0 c -4.2479,-0.1702 -6.3941,-0.2592 -8.647,-0.26 z m 49.6784,-13.5824 c 0,27.6142 -22.3858,50 -50,50 -27.6142,0 -50,-22.3858 -50,-50 0,-27.6142 22.3858,-50 50,-50 27.6142,0 50,22.3858 50,50 z"
       inkscape:connector-curvature="0" />
    <g
       id="g3560"
       transform="matrix(0.15695069,0,0,0.15695069,-1467.0019,853.29191)"
       inkscape:export-filename="D:\Portable\Files\Repos\ny-coder\res\ico\menu-normal.png"
       inkscape:export-xdpi="100"
       inkscape:export-ydpi="100">
      <path
         id="path3550"
         d="m -1625.1517,1256.6384 c -7.9312,-0.01 -18.5384,0.1102 -34.8437,0.4063 l -122.875,0 c -31.6571,10e-5 -57.125,25.4678 -57.125,57.125 0,31.6571 25.468,57.1563 57.125,57.1563 l 122.875,0 c 59.5992,2.2093 60.1505,2.169 114.2812,0 l 122.8438,0 c 31.6569,10e-5 57.1561,-25.4991 57.1561,-57.1563 2e-4,-31.6572 -25.4992,-57.125 -57.1561,-57.125 l -122.8438,0 c -56.0635,0.6123 -55.644,-0.3815 -79.4375,-0.4063 z"
         style="fill:#b3b3b3;fill-opacity:1;stroke:none"
         inkscape:connector-curvature="0" />
      <path
         id="path3548"
         d="m -1625.1517,1401.3572 c -7.9312,-0.01 -18.5384,0.079 -34.8437,0.375 l -122.875,0 c -31.657,10e-5 -57.125,25.4678 -57.125,57.125 0,31.6572 25.468,57.1562 57.125,57.1562 l 122.875,0 c 59.5992,2.2094 60.1505,2.1691 114.2812,0 l 122.8438,0 c 31.6569,10e-5 57.1561,-25.4989 57.1561,-57.1562 1e-4,-31.6572 -25.499,-57.125 -57.1561,-57.125 l -122.8438,0 c -56.0635,0.6123 -55.644,-0.3502 -79.4375,-0.375 z"
         style="fill:#b3b3b3;fill-opacity:1;stroke:none"
         inkscape:connector-curvature="0" />
      <path
         id="rect2985-1-2-2-2-4"
         d="m -1284.2857,1459.5051 c 0,175.9421 -142.6292,318.5714 -318.5713,318.5714 -175.9422,0 -318.5715,-142.6293 -318.5715,-318.5714 0,-175.9422 142.6293,-318.5715 318.5715,-318.5715 175.9421,0 318.5713,142.6293 318.5713,318.5715 z"
         style="fill:none;stroke:none"
         inkscape:connector-curvature="0" />
      <path
         id="path3546"
         d="m -1600.808,1546.0447 c -14.3541,-0.01 -29.3878,0.5516 -59.1874,1.6563 l -122.875,0 c -31.657,0 -57.125,25.4991 -57.125,57.1562 0,31.6572 25.4679,57.1249 57.125,57.125 l 122.875,0 c 65.2213,1.1845 39.5299,-0.8164 114.2812,0 l 122.8438,0 c 31.6571,0 57.1561,-25.4678 57.1561,-57.125 0,-31.6572 -25.4991,-57.1564 -57.1561,-57.1562 l -122.8438,0 c -27.0653,-1.0845 -40.7396,-1.6513 -55.0938,-1.6563 z"
         style="fill:#b3b3b3;fill-opacity:1;stroke:none"
         inkscape:connector-curvature="0" />
    </g>
    <rect
       style="fill:#ffffff;fill-opacity:1;stroke:#999999"
       id="rect3566"
       width="3298.5715"
       height="1834.2858"
       x="-4485.7144"
       y="-2650.4951"
       ry="139.49097" />
    <text
       xml:space="preserve"
       style="font-size:250px;font-style:normal;font-variant:normal;font-weight:bold;font-stretch:normal;text-align:start;line-height:125%;letter-spacing:0px;word-spacing:0px;writing-mode:lr;text-anchor:start;fill:#000000;fill-opacity:1;stroke:none;font-family:Fira Code Retina;-inkscape-font-specification:Fira Code Retina Bold"
       x="-3453.1951"
       y="-1944.6636"
       id="text3568"
       sodipodi:linespacing="125%"><tspan
         sodipodi:role="line"
         id="tspan3628">(nyquist coder)</tspan></text>
    <g
       id="g3653">
      <path
         transform="matrix(0.62780266,0,0,0.62780266,-2686.9024,-1318.7235)"
         d="m -899.99997,-11.923532 a 318.57144,318.57144 0 1 1 -637.14293,0 318.57144,318.57144 0 1 1 637.14293,0 z"
         sodipodi:ry="318.57144"
         sodipodi:rx="318.57144"
         sodipodi:cy="-11.923532"
         sodipodi:cx="-1218.5714"
         id="path3005-7-1"
         style="fill:#000000;fill-opacity:1;stroke:none"
         sodipodi:type="arc" />
      <g
         transform="matrix(0.62780266,0,0,0.62780266,-1292.2836,-142.93882)"
         style="fill:#ffffff"
         id="g3611">
        <path
           style="fill:#ffffff;fill-opacity:1;stroke:none"
           d="m -3439.93,-1647.64 c 31.6571,0 57.1249,-25.4679 57.125,-57.125 l -1e-4,-122.875 c -0.4874,-43.7293 -1.1013,-49.6315 1e-4,-114.2813 l -1e-4,-122.8438 c 0,-31.6572 -25.4678,-57.1562 -57.125,-57.1562 -31.6571,-1e-4 -57.1562,25.4991 -57.1562,57.1562 l 10e-5,122.8438 c 1.2246,39.4432 -0.5498,70.4168 0,114.2812 l 0,122.8751 c -10e-5,31.6571 25.499,57.1249 57.1561,57.125 z"
           id="rect2985-40-1"
           inkscape:connector-curvature="0"
           sodipodi:nodetypes="csccsssccscc" />
        <path
           style="fill:#ffffff;fill-opacity:1;stroke:none"
           d="m -3240.004,-1757.3617 c -17.0094,26.6994 -52.1726,34.4948 -78.8719,17.4855 l -103.6317,-66.0206 c -36.6191,-23.9068 -41.2672,-27.5959 -96.384,-61.4033 l -103.6054,-66.004 c -26.6994,-17.0094 -34.5212,-52.1893 -17.5117,-78.8887 17.0093,-26.6994 52.2158,-34.5045 78.9151,-17.4951 l 103.6055,66.0039 c 32.608,22.2258 59.6841,37.3713 96.3837,61.4034 l 103.6318,66.0206 c 26.6993,17.0093 34.478,52.1989 17.4687,78.8983 z"
           id="rect2985-40-9-3"
           inkscape:connector-curvature="0"
           sodipodi:nodetypes="csccsssccscc" />
        <path
           style="fill:#ffffff;fill-opacity:1;stroke:none"
           d="m -3240.004,-2012.1996 c -17.0094,-26.6994 -52.1726,-34.4948 -78.8719,-17.4855 l -103.6317,66.0206 c -36.6191,23.9068 -41.2672,27.5958 -96.384,61.4033 l -103.6054,66.004 c -26.6994,17.0094 -34.5212,52.1893 -17.5117,78.8887 17.0093,26.6994 52.2158,34.5044 78.9151,17.4951 l 103.6055,-66.004 c 32.608,-22.2257 59.6841,-37.3713 96.3837,-61.4033 l 103.6317,-66.0206 c 26.6994,-17.0093 34.4781,-52.1989 17.4688,-78.8983 z"
           id="rect2985-40-9-8-8"
           inkscape:connector-curvature="0"
           sodipodi:nodetypes="csccsssccscc" />
      </g>
    </g>
    <rect
       style="fill:#ffffff;fill-opacity:1;stroke:none"
       id="rect3660"
       width="600"
       height="550.90912"
       x="-3480.749"
       y="67.916405"
       ry="99.054543" />
    <text
       xml:space="preserve"
       style="font-size:200px;font-style:normal;font-variant:normal;font-weight:normal;font-stretch:normal;text-align:start;line-height:125%;letter-spacing:0px;word-spacing:0px;writing-mode:lr-tb;text-anchor:start;fill:#000000;fill-opacity:1;stroke:none;font-family:Fira Code Retina;-inkscape-font-specification:Fira Code Retina"
       x="-3420.6323"
       y="413.36914"
       id="text3568-7"
       sodipodi:linespacing="125%"><tspan
         sodipodi:role="line"
         id="tspan3651"
         x="-3420.6323"
         y="413.36914">(nc)</tspan></text>
    <g
       id="g3688"
       transform="matrix(0.16666667,0,0,0.16666667,-2376.6666,809.3711)"
       inkscape:export-filename="D:\Portable\Files\Repos\ny-coder\res\ico\application.png"
       inkscape:export-xdpi="100"
       inkscape:export-ydpi="100">
      <rect
         ry="99.054543"
         y="-320.23523"
         x="-3791.4285"
         height="550.90912"
         width="600"
         id="rect3660-2"
         style="fill:#ffffff;fill-opacity:1;stroke:none" />
      <text
         sodipodi:linespacing="125%"
         id="text3568-7-7"
         y="25.217497"
         x="-3731.3118"
         style="font-size:200px;font-style:normal;font-variant:normal;font-weight:normal;font-stretch:normal;text-align:start;line-height:125%;letter-spacing:0px;word-spacing:0px;writing-mode:lr-tb;text-anchor:start;fill:#000000;fill-opacity:1;stroke:none;font-family:Fira Code Retina;-inkscape-font-specification:Fira Code Retina"
         xml:space="preserve"><tspan
           y="25.217497"
           x="-3731.3118"
           id="tspan3651-7"
           sodipodi:role="line">(nc)</tspan></text>
    </g>
    <rect
       style="fill:#ff2a2a;stroke:none"
       id="rect4312"
       width="2377.1428"
       height="1942.8572"
       x="-217.14285"
       y="-2656.2092"
       ry="99.054543" />
    <path
       style="fill:#ffffff;fill-opacity:1;stroke:none"
       d="M -40.9375 -2520.25 C -95.813717 -2520.25 -140 -2476.0637 -140 -2421.1875 L -140 -2068.375 C -140 -2013.4988 -95.813717 -1969.3125 -40.9375 -1969.3125 L 360.9375 -1969.3125 C 415.81371 -1969.3125 460 -2013.4988 460 -2068.375 L 460 -2291.25 L 240.40625 -2291.25 L 240.40625 -2449.75 L 257.09375 -2449.9688 L 257.09375 -2309.4375 L 460 -2309.625 L 257.15625 -2520.25 L -40.9375 -2520.25 z M -24.71875 -2277.125 L -11.96875 -2264.125 C -24.465793 -2252.4621 -34.46914 -2241.5012 -41.96875 -2231.25 C -49.468515 -2220.9985 -55.051619 -2209.7066 -58.71875 -2197.375 C -62.386003 -2185.0433 -64.218805 -2170.5426 -64.21875 -2153.875 C -64.218805 -2137.3751 -62.386003 -2122.9592 -58.71875 -2110.625 C -55.051619 -2098.2908 -49.509591 -2086.9578 -42.09375 -2076.625 C -34.678063 -2066.2923 -24.63364 -2055.2929 -11.96875 -2043.625 L -24.71875 -2030.625 C -39.219766 -2042.4608 -51.094449 -2054.2097 -60.34375 -2065.875 C -69.593169 -2077.5404 -76.718996 -2090.5419 -81.71875 -2104.875 C -86.718579 -2119.2081 -89.21878 -2135.539 -89.21875 -2153.875 C -89.21878 -2172.2058 -86.718579 -2188.5418 -81.71875 -2202.875 C -76.718996 -2217.208 -69.593169 -2230.207 -60.34375 -2241.875 C -51.094449 -2253.5428 -39.219766 -2265.2942 -24.71875 -2277.125 z M 153.59375 -2277.125 C 168.09462 -2265.2942 179.9693 -2253.5428 189.21875 -2241.875 C 198.46802 -2230.207 205.59385 -2217.208 210.59375 -2202.875 C 215.59343 -2188.5418 218.09363 -2172.2058 218.09375 -2153.875 C 218.09363 -2135.539 215.59343 -2119.2081 210.59375 -2104.875 C 205.59385 -2090.5419 198.46802 -2077.5404 189.21875 -2065.875 C 179.9693 -2054.2097 168.09462 -2042.4608 153.59375 -2030.625 L 140.84375 -2043.625 C 153.50849 -2055.2929 163.55291 -2066.2923 170.96875 -2076.625 C 178.38444 -2086.9578 183.92647 -2098.2908 187.59375 -2110.625 C 191.26085 -2122.9592 193.09366 -2137.3751 193.09375 -2153.875 C 193.09366 -2170.5426 191.26085 -2185.0433 187.59375 -2197.375 C 183.92647 -2209.7066 178.34336 -2220.9985 170.84375 -2231.25 C 163.34399 -2241.5012 153.34064 -2252.4621 140.84375 -2264.125 L 153.59375 -2277.125 z "
       id="path3339" />
    <path
       style="fill:#ffffff;fill-opacity:1;stroke:none"
       d="m 833.34026,-2531.6638 98.08824,0 c 0,0 85.9666,-0.1525 87.7017,98.8322 40.9211,0.4976 130.0805,0.9745 203.1584,1.3069 75.1621,3.2565 111.9971,37.0507 111.9971,85.3885 l 0,266.327 c 0,54.8762 -44.1783,99.0546 -99.0546,99.0546 l -401.89084,0 c -54.87622,0 -99.05454,-44.1784 -99.05454,-99.0546 l 0,-352.8 c 0,-54.8762 44.17832,-99.0546 99.05454,-99.0546 z"
       id="rect3660-8-5"
       inkscape:connector-curvature="0"
       sodipodi:nodetypes="sccccssssss" />
    <path
       style="fill:#ffffff;fill-opacity:1;stroke:none"
       d="m 771.86537,-1921.3985 16.34803,0 c 0,0 14.32777,-0.025 14.61695,16.472 6.82019,0.083 21.68009,0.1624 33.85974,0.2178 12.52702,0.5428 18.66619,6.1751 18.66619,14.2315 l 0,44.3878 c 0,9.146 -7.36305,16.5091 -16.5091,16.5091 l -66.98181,0 c -9.14604,0 -16.50909,-7.3631 -16.50909,-16.5091 l 0,-58.8 c 0,-9.1461 7.36305,-16.5091 16.50909,-16.5091 z"
       id="rect3660-8-5-5"
       inkscape:connector-curvature="0"
       sodipodi:nodetypes="sccccssssss"
       inkscape:export-filename="D:\Portable\Files\Repos\ny-coder\res\ico\project-folder.png"
       inkscape:export-xdpi="100"
       inkscape:export-ydpi="100" />
    <path
       style="fill:#ffffff;fill-opacity:1;stroke:none"
       d="M 1617.3438 -2520.2188 C 1562.4676 -2520.2188 1518.2812 -2476.0637 1518.2812 -2421.1875 L 1518.2812 -2068.375 C 1518.2812 -2013.4988 1562.4676 -1969.3125 1617.3438 -1969.3125 L 2019.2188 -1969.3125 C 2074.095 -1969.3125 2118.2812 -2013.4988 2118.2812 -2068.375 L 2118.2812 -2334.6875 C 2118.2812 -2383.0253 2081.4433 -2416.8373 2006.2812 -2420.0938 C 1933.2034 -2420.4262 1844.0461 -2420.9086 1803.125 -2421.4062 C 1801.3899 -2520.3909 1715.4062 -2520.2188 1715.4062 -2520.2188 L 1617.3438 -2520.2188 z M 1692 -2251.25 L 1944.5312 -2251.25 C 1970.274 -2251.25 1991 -2230.524 1991 -2204.7812 L 1991 -2200.75 C 1991 -2175.0073 1970.274 -2154.2812 1944.5312 -2154.2812 L 1692 -2154.2812 C 1666.2573 -2154.2812 1645.5312 -2175.0073 1645.5312 -2200.75 L 1645.5312 -2204.7812 C 1645.5312 -2230.524 1666.2573 -2251.25 1692 -2251.25 z "
       id="rect3660-8-5-1" />
    <path
       inkscape:connector-curvature="0"
       style="fill:#ffffff;fill-opacity:1;stroke:none"
       d="m 1544.8865,-1905.5767 c -9.146,0 -16.5104,7.3592 -16.5104,16.5052 l 0,58.8021 c 0,9.146 7.3644,16.5104 16.5104,16.5104 l 66.9792,0 c 9.146,0 16.5104,-7.3644 16.5104,-16.5104 l 0,-44.3854 c 0,-8.0563 -6.1396,-13.6917 -18.6667,-14.2344 -12.1796,-0.055 -27.0391,-0.1358 -33.8593,-0.2187 -0.2892,-16.4975 -14.6198,-16.4688 -14.6198,-16.4688 l -16.3438,0 z m 12.4427,44.8281 42.0886,0 c 4.2904,0 7.7448,3.4543 7.7448,7.7448 l 0,0.6719 c 0,4.2904 -3.4544,7.7448 -7.7448,7.7448 l -42.0886,0 c -4.2904,0 -7.7448,-3.4544 -7.7448,-7.7448 l 0,-0.6719 c 0,-4.2905 3.4544,-7.7448 7.7448,-7.7448 z"
       id="rect3660-8-5-1-7" />
    <path
       style="fill:#ffffff;fill-opacity:1;stroke:none"
       d="M -29.21875 -1720.1875 C -84.09495 -1720.1875 -128.28125 -1676.0325 -128.28125 -1621.1562 L -128.28125 -1268.3438 C -128.28125 -1213.4676 -84.09495 -1169.2812 -29.21875 -1169.2812 L 372.65625 -1169.2812 C 427.53245 -1169.2812 471.71875 -1213.4676 471.71875 -1268.3438 L 471.71875 -1534.6562 C 471.71875 -1582.9941 434.88085 -1616.806 359.71875 -1620.0625 C 286.64095 -1620.3949 197.4836 -1620.8774 156.5625 -1621.375 C 154.8274 -1720.3597 68.84375 -1720.1875 68.84375 -1720.1875 L -29.21875 -1720.1875 z M 169.6875 -1573.0312 L 173.71875 -1573.0312 C 199.46155 -1573.0312 220.1875 -1552.3052 220.1875 -1526.5625 L 220.1875 -1448.7812 L 297.96875 -1448.7812 C 323.71155 -1448.7812 344.4375 -1428.0553 344.4375 -1402.3125 L 344.4375 -1398.2812 C 344.4375 -1372.5386 323.71155 -1351.8125 297.96875 -1351.8125 L 220.1875 -1351.8125 L 220.1875 -1274.0312 C 220.1875 -1248.2886 199.46155 -1227.5625 173.71875 -1227.5625 L 169.6875 -1227.5625 C 143.9448 -1227.5625 123.21875 -1248.2886 123.21875 -1274.0312 L 123.21875 -1351.8125 L 45.4375 -1351.8125 C 19.6948 -1351.8125 -1.03125 -1372.5386 -1.03125 -1398.2812 L -1.03125 -1402.3125 C -1.03125 -1428.0553 19.6948 -1448.7812 45.4375 -1448.7812 L 123.21875 -1448.7812 L 123.21875 -1526.5625 C 123.21875 -1552.3052 143.9448 -1573.0312 169.6875 -1573.0312 z "
       id="path3267" />
    <path
       inkscape:connector-curvature="0"
       style="fill:#ffffff;fill-opacity:1;stroke:none"
       d="m -103.68242,-1131.8 c -9.14604,0 -16.51042,7.3592 -16.51042,16.5052 l 0,58.8021 c 0,9.146 7.36438,16.5104 16.51042,16.5104 l 66.979165,0 c 9.146033,0 16.510415,-7.3644 16.510415,-16.5104 l 0,-44.3854 c 0,-8.0563 -6.13965,-13.6916 -18.666665,-14.2344 -12.179634,-0.055 -27.039192,-0.1358 -33.859376,-0.2187 -0.289183,-16.4975 -14.619793,-16.4688 -14.619793,-16.4688 l -16.343746,0 z m 33.151039,24.5261 0.671875,0 c 4.290467,0 7.744792,3.4543 7.744792,7.7448 l 0,12.9635 12.963542,0 c 4.290467,0 7.744792,3.4543 7.744792,7.7448 l 0,0.6719 c 0,4.2904 -3.454325,7.7448 -7.744792,7.7448 l -12.963542,0 0,12.9635 c 0,4.2904 -3.454325,7.7448 -7.744792,7.7448 l -0.671875,0 c -4.29045,0 -7.744792,-3.4544 -7.744792,-7.7448 l 0,-12.9635 -12.963542,0 c -4.29045,0 -7.744795,-3.4544 -7.744795,-7.7448 l 0,-0.6719 c 0,-4.2905 3.454345,-7.7448 7.744795,-7.7448 l 12.963542,0 0,-12.9635 c 0,-4.2905 3.454342,-7.7448 7.744792,-7.7448 z"
       id="path3267-9" />
    <path
       inkscape:connector-curvature="0"
       style="fill:#ffffff;fill-opacity:1;stroke:none"
       d="m -107.72303,-1929.81 c -9.14604,0 -16.51042,7.3644 -16.51042,16.5104 l 0,58.8021 c 0,9.146 7.36438,16.5104 16.51042,16.5104 l 66.97919,0 c 9.146,0 16.5104,-7.3644 16.5104,-16.5104 l 0,-37.1458 -36.59898,0 0,-26.4167 2.78125,-0.037 0,23.4219 33.81773,-0.031 -33.80731,-35.1042 -49.68228,0 z m 2.70311,40.5208 2.125,2.1667 c -2.08283,1.9438 -3.75006,3.7706 -5,5.4792 -1.24995,1.7085 -2.18046,3.5905 -2.79166,5.6458 -0.6112,2.0553 -0.91667,4.4721 -0.91667,7.25 0,2.75 0.30547,5.1526 0.91667,7.2083 0.6112,2.0557 1.53486,3.9446 2.77083,5.6667 1.23595,1.7221 2.91002,3.5553 5.02083,5.5 l -2.125,2.1667 c -2.41683,-1.9727 -4.39595,-3.9308 -5.9375,-5.875 -1.54156,-1.9443 -2.7292,-4.1112 -3.56249,-6.5 -0.8333,-2.3889 -1.25,-5.1107 -1.25,-8.1667 0,-3.0551 0.4167,-5.7778 1.25,-8.1667 0.83329,-2.3888 2.02093,-4.5553 3.56249,-6.5 1.54155,-1.9446 3.52067,-3.9032 5.9375,-5.875 z m 29.71875,0 c 2.41682,1.9718 4.39594,3.9304 5.9375,5.875 1.54155,1.9447 2.72919,4.1112 3.5625,6.5 0.83329,2.3889 1.24999,5.1116 1.25,8.1667 -1e-5,3.056 -0.41671,5.7778 -1.25,8.1667 -0.83331,2.3888 -2.02095,4.5557 -3.5625,6.5 -1.54156,1.9442 -3.52068,3.9023 -5.9375,5.875 l -2.125,-2.1667 c 2.1108,-1.9447 3.78487,-3.7779 5.02084,-5.5 1.23595,-1.7221 2.15963,-3.611 2.77083,-5.6667 0.61118,-2.0557 0.91665,-4.4583 0.91667,-7.2083 -2e-5,-2.7779 -0.30549,-5.1947 -0.91667,-7.25 -0.6112,-2.0553 -1.54173,-3.9373 -2.79167,-5.6458 -1.24995,-1.7086 -2.91718,-3.5354 -5,-5.4792 l 2.125,-2.1667 z"
       id="path3339-4" />
    <g
       id="g3140"
       transform="translate(3037.051,-2066.6142)">
      <path
         transform="translate(-2238.4796,1925.1856)"
         d="m -899.99997,-11.923532 c 0,175.942152 -142.62933,318.571442 -318.57143,318.571442 -175.9422,0 -318.5715,-142.62929 -318.5715,-318.571442 0,-175.942148 142.6293,-318.571438 318.5715,-318.571438 175.9421,0 318.57143,142.62929 318.57143,318.571438 z"
         sodipodi:ry="318.57144"
         sodipodi:rx="318.57144"
         sodipodi:cy="-11.923532"
         sodipodi:cx="-1218.5714"
         id="path3005-7-8-1"
         style="fill:#5b868f;fill-opacity:1;stroke:none"
         sodipodi:type="arc" />
      <g
         transform="translate(-152.25634,-4.9430378)"
         id="g3136">
        <path
           style="fill:#ffffff;fill-opacity:1;stroke:none"
           d="m -3418.1113,2138.2051 c 29.3689,0 52.9958,-23.6271 52.9959,-52.996 l -10e-5,-113.9935 c -0.4521,-40.5685 -1.0217,-46.0441 10e-5,-106.021 l -10e-5,-113.9646 c 0,-29.3689 -23.6269,-53.0249 -52.9959,-53.0249 -29.3689,0 -53.025,23.656 -53.025,53.0249 l 10e-5,113.9646 c 1.1361,36.5922 -0.51,65.327 0,106.0209 l 0,113.9936 c -10e-5,29.3689 23.656,52.996 53.0249,52.996 z"
           id="rect2985-40-2-4"
           inkscape:connector-curvature="0"
           sodipodi:nodetypes="csccsssccscc" />
        <path
           style="fill:#ffffff;fill-opacity:1;stroke:none"
           d="m -3280.2144,1698.2051 c -14.5743,-10e-5 -29.1614,5.5787 -40.3339,16.7512 -22.3449,22.3449 -12.9114,53.1604 -0.031,80.6679 41.9856,119.4846 41.9332,117.2178 0.8735,245.1542 -13.7407,31.8098 -22.3137,58.3231 0.031,80.668 22.3449,22.345 58.2917,22.3449 80.6367,0 84.5958,-84.848 77.6178,-77.6175 162.334,-162.334 19.0043,-29.0232 19.5583,-60.9677 -0.8734,-81.791 -84.7162,-84.7164 -77.7382,-77.5171 -162.3341,-162.3651 -11.1724,-11.1725 -25.7283,-16.7512 -40.3027,-16.7512 z"
           id="rect2985-40-2-4-4"
           inkscape:connector-curvature="0"
           sodipodi:nodetypes="ssccsccccs" />
      </g>
    </g>
    <path
       style="fill:#ffffff;fill-opacity:1;stroke:none"
       d="M -1604.0938 520.59375 C -1631.708 520.59375 -1654.0938 542.97951 -1654.0938 570.59375 C -1654.0938 598.20799 -1631.708 620.59375 -1604.0938 620.59375 C -1576.4795 620.59375 -1554.0938 598.20799 -1554.0938 570.59375 C -1554.0938 542.97951 -1576.4795 520.59375 -1604.0938 520.59375 z M -1621.875 536.0625 C -1617.2655 536.0625 -1613.5625 539.76553 -1613.5625 544.375 L -1613.5625 562.25 C -1613.7229 571.66342 -1613.6335 572.539 -1613.5625 578.90625 L -1613.5625 596.78125 C -1613.5625 601.39071 -1617.2655 605.125 -1621.875 605.125 C -1626.4844 605.125 -1630.2188 601.39071 -1630.2188 596.78125 L -1630.2188 578.90625 C -1630.2986 572.51932 -1630.0403 567.99317 -1630.2188 562.25 L -1630.2188 544.375 C -1630.2188 539.76553 -1626.4844 536.0625 -1621.875 536.0625 z M -1600.25 536.0625 C -1597.9626 536.0625 -1595.6599 536.93397 -1593.9062 538.6875 C -1580.629 552.00445 -1581.7337 550.85996 -1568.4375 564.15625 C -1565.2307 567.42448 -1565.3297 572.44479 -1568.3125 577 C -1581.6087 590.29632 -1580.504 589.1518 -1593.7812 602.46875 C -1597.2885 605.9758 -1602.9304 605.97582 -1606.4375 602.46875 C -1609.9397 598.96171 -1608.5942 594.80507 -1606.4375 589.8125 C -1599.9932 569.73279 -1599.9729 570.09694 -1606.5625 551.34375 C -1608.5889 547.02643 -1610.0695 542.19455 -1606.5625 538.6875 C -1604.8089 536.93397 -1602.5375 536.06248 -1600.25 536.0625 z "
       id="path3005-7-8-1-2" />
    <g
       id="g3221">
      <path
         transform="matrix(0.15695067,0,0,0.15695067,-1531.2433,577.59689)"
         d="m -899.99997,-11.923532 a 318.57144,318.57144 0 1 1 -637.14293,0 318.57144,318.57144 0 1 1 637.14293,0 z"
         sodipodi:ry="318.57144"
         sodipodi:rx="318.57144"
         sodipodi:cy="-11.923532"
         sodipodi:cx="-1218.5714"
         id="path3005-7-8-1-2-7"
         style="fill:none;fill-opacity:1;stroke:none"
         sodipodi:type="arc" />
      <path
         id="rect2985-40-2-4-5-1"
         d="M -1740.2812 541.1875 C -1744.8907 541.1875 -1748.5938 544.92178 -1748.5938 549.53125 L -1748.5938 567.40625 C -1748.4154 573.14942 -1748.6737 577.64432 -1748.5938 584.03125 L -1748.5938 601.9375 C -1748.5938 606.54696 -1744.8907 610.25 -1740.2812 610.25 C -1735.6717 610.25 -1731.9688 606.54696 -1731.9688 601.9375 L -1731.9688 584.03125 C -1732.0397 577.664 -1732.1291 576.81967 -1731.9688 567.40625 L -1731.9688 549.53125 C -1731.9688 544.92178 -1735.6717 541.1875 -1740.2812 541.1875 z M -1718.6562 541.1875 C -1720.9437 541.18748 -1723.2151 542.05897 -1724.9688 543.8125 C -1728.4758 547.31955 -1726.9951 552.18268 -1724.9688 556.5 C -1718.3791 575.25319 -1718.3994 574.88904 -1724.8438 594.96875 C -1727.0005 599.96132 -1728.3459 604.11796 -1724.8438 607.625 C -1721.3366 611.13207 -1715.6946 611.13205 -1712.1875 607.625 C -1698.9101 594.30805 -1699.9837 595.45257 -1686.6875 582.15625 C -1683.7047 577.60104 -1683.637 572.58073 -1686.8438 569.3125 C -1700.1399 556.01621 -1699.0351 557.12945 -1712.3125 543.8125 C -1714.066 542.05897 -1716.3689 541.1875 -1718.6562 541.1875 z "
         style="fill:#b3b3b3;fill-opacity:1;stroke:none" />
    </g>
  </g>
</svg>
