<?xml version="1.0" encoding="UTF-8" standalone="no"?>
<!-- Created with Inkscape (http://www.inkscape.org/) -->

<svg
   xmlns:dc="http://purl.org/dc/elements/1.1/"
   xmlns:cc="http://creativecommons.org/ns#"
   xmlns:rdf="http://www.w3.org/1999/02/22-rdf-syntax-ns#"
   xmlns:svg="http://www.w3.org/2000/svg"
   xmlns="http://www.w3.org/2000/svg"
   xmlns:sodipodi="http://sodipodi.sourceforge.net/DTD/sodipodi-0.dtd"
   xmlns:inkscape="http://www.inkscape.org/namespaces/inkscape"
   width="744.09448819"
   height="1052.3622047"
   id="svg2"
   version="1.1"
   inkscape:version="0.48.5 r10040"
   sodipodi:docname="icons.svg">
  <defs
     id="defs4" />
  <sodipodi:namedview
     id="base"
     pagecolor="#ffffff"
     bordercolor="#666666"
     borderopacity="1.0"
     inkscape:pageopacity="0.0"
     inkscape:pageshadow="2"
     inkscape:zoom="0.175"
     inkscape:cx="-1461.5892"
     inkscape:cy="1560.4387"
     inkscape:document-units="px"
     inkscape:current-layer="layer1"
     showgrid="false"
     inkscape:window-width="1842"
     inkscape:window-height="1057"
     inkscape:window-x="70"
     inkscape:window-y="-8"
     inkscape:window-maximized="1"
     showguides="true"
     inkscape:guide-bbox="true">
    <sodipodi:guide
       orientation="0,1"
       position="-738.57143,1205.7143"
       id="guide3058" />
    <sodipodi:guide
       orientation="1,0"
       position="-878.57143,1448.5714"
       id="guide3060" />
  </sodipodi:namedview>
  <metadata
     id="metadata7">
    <rdf:RDF>
      <cc:Work
         rdf:about="">
        <dc:format>image/svg+xml</dc:format>
        <dc:type
           rdf:resource="http://purl.org/dc/dcmitype/StillImage" />
        <dc:title></dc:title>
      </cc:Work>
    </rdf:RDF>
  </metadata>
  <g
     inkscape:label="Layer 1"
     inkscape:groupmode="layer"
     id="layer1">
    <rect
       style="fill:#0000ff;fill-opacity:1;stroke:#999999;stroke-width:20;stroke-miterlimit:4;stroke-opacity:1;stroke-dasharray:none;stroke-dashoffset:0"
       id="rect3662"
       width="1451.4286"
       height="1720"
       x="-3931.4285"
       y="-587.63782"
       ry="80" />
    <rect
       style="fill:#000000;fill-opacity:1;stroke:none"
       id="rect3031"
       width="2528.5715"
       height="2427.1428"
       x="-1894.2856"
       y="-459.06638"
       ry="139.49097" />
    <g
       id="g3051"
       transform="translate(90,-7.1428571)">
      <path
         transform="translate(1420,-85.714286)"
         d="m -899.99997,-11.923532 c 0,175.942152 -142.62933,318.571442 -318.57143,318.571442 -175.9422,0 -318.5715,-142.62929 -318.5715,-318.571442 0,-175.942148 142.6293,-318.571438 318.5715,-318.571438 175.9421,0 318.57143,142.62929 318.57143,318.571438 z"
         sodipodi:ry="318.57144"
         sodipodi:rx="318.57144"
         sodipodi:cy="-11.923532"
         sodipodi:cx="-1218.5714"
         id="path3005"
         style="fill:#5b868f;fill-opacity:1;stroke:none"
         sodipodi:type="arc" />
      <path
         inkscape:connector-curvature="0"
         id="rect2985"
         d="m 33.74482,-265.31054 c -22.385,22.38502 -22.3849,58.40197 0,80.78695 l 86.8858,86.885735 -86.8858,86.88575 c -22.385,22.38502 -22.3849,58.401968 0,80.786948 22.385,22.384984 58.4241,22.407114 80.8091,0.0221 l 86.8857,-86.885738 86.8637,86.863648 c 22.385,22.384984 58.424,22.407114 80.809,0.0221 22.385,-22.38495 22.385,-58.446128 0,-80.831098 l -86.8637,-86.86365 86.8637,-86.863685 c 22.385,-22.38495 22.385,-58.44616 0,-80.83113 -22.385,-22.38498 -58.4241,-22.36286 -80.809,0.0221 l -86.8637,86.86368 -86.8858,-86.88575 c -22.3849,-22.38497 -58.424,-22.36288 -80.809,0.0221 z"
         style="fill:#ffffff;fill-opacity:1;stroke:none" />
    </g>
    <path
       id="rect2985-4"
       style="fill:#ffffff;fill-opacity:1;stroke:none"
       d="m -1632.0324,683.18873 c -3.5133,3.51335 -3.5133,9.16623 0,12.67957 l 13.6368,13.63677 -13.6368,13.63678 c -3.5133,3.51335 -3.5133,9.16622 0,12.67956 3.5133,3.51334 9.1697,3.51681 12.683,0.003 l 13.6368,-13.63677 13.6333,13.6333 c 3.5134,3.51334 9.1697,3.51681 12.683,0.003 3.5134,-3.51333 3.5134,-9.17315 0,-12.6865 l -13.6333,-13.6333 13.6333,-13.63331 c 3.5134,-3.51334 3.5134,-9.17317 0,-12.6865 -3.5133,-3.51334 -9.1697,-3.50987 -12.683,0.003 l -13.6333,13.63332 -13.6368,-13.63678 c -3.5133,-3.51333 -9.1697,-3.50987 -12.683,0.003 z m 76.3181,26.31636 c 0,27.61423 -22.3858,49.99999 -50,49.99999 -27.6142,0 -50,-22.38576 -50,-49.99999 0,-27.61425 22.3858,-50.00001 50,-50.00001 27.6142,0 50,22.38576 50,50.00001 z"
       inkscape:connector-curvature="0"
       inkscape:export-filename="D:\Portable\Files\Repos\ny-coder\res\ico\close-tab-hover.png"
       inkscape:export-xdpi="100"
       inkscape:export-ydpi="100" />
    <g
       id="g3200">
      <path
         id="rect2985-4-0"
         d="m -1672.8572,709.50506 c 0,27.61423 -22.3858,49.99999 -50,49.99999 -27.6142,0 -50,-22.38576 -50,-49.99999 0,-27.61424 22.3858,-50.00001 50,-50.00001 27.6142,0 50,22.38577 50,50.00001 z"
         style="fill:none;stroke:none"
         inkscape:connector-curvature="0" />
      <path
         id="path3057"
         d="m -1749.1753,683.1887 c -3.5133,3.51335 -3.5133,9.16623 0,12.67957 l 13.6368,13.63677 -13.6368,13.63679 c -3.5133,3.51334 -3.5133,9.16621 0,12.67955 3.5134,3.51334 9.1697,3.51681 12.6831,0.003 l 13.6367,-13.63677 13.6333,13.6333 c 3.5134,3.51334 9.1697,3.51681 12.6831,0.003 3.5133,-3.51332 3.5133,-9.17315 0,-12.68649 l -13.6333,-13.6333 13.6333,-13.63332 c 3.5133,-3.51333 3.5133,-9.17317 0,-12.6865 -3.5134,-3.51334 -9.1697,-3.50987 -12.6831,0.003 l -13.6333,13.63331 -13.6367,-13.63678 c -3.5134,-3.51333 -9.1697,-3.50987 -12.6831,0.003 z"
         style="fill:#b3b3b3;fill-opacity:1;stroke:none"
         inkscape:connector-curvature="0" />
    </g>
    <path
       sodipodi:type="arc"
       style="fill:#5b868f;fill-opacity:1;stroke:none"
       id="path3005-7"
       sodipodi:cx="-1218.5714"
       sodipodi:cy="-11.923532"
       sodipodi:rx="318.57144"
       sodipodi:ry="318.57144"
       d="m -899.99997,-11.923532 a 318.57144,318.57144 0 1 1 -637.14293,0 318.57144,318.57144 0 1 1 637.14293,0 z"
       transform="translate(71.232769,-155.87128)" />
    <path
       style="fill:#ffffff;fill-opacity:1;stroke:none"
       d="m -1147.2686,69.345841 c 31.6571,5e-6 57.1249,-25.46793 57.125,-57.125033 l -10e-5,-122.874988 c -0.4874,-43.72927 -1.1013,-49.63148 10e-5,-114.28128 l -10e-5,-122.84378 c 0,-31.65717 -25.4678,-57.15623 -57.125,-57.15622 -31.6571,-4e-5 -57.1562,25.49907 -57.1562,57.15622 l 10e-5,122.84376 c 1.2246,39.4432 -0.5498,70.41684 0,114.2812 l 0,122.875094 c -10e-5,31.657111 25.499,57.124939 57.1561,57.125004 z"
       id="rect2985-40"
       inkscape:connector-curvature="0"
       sodipodi:nodetypes="csccsssccscc" />
    <path
       style="fill:#ffffff;fill-opacity:1;stroke:none"
       d="m -947.34257,-40.375855 c -17.0094,26.699379 -52.17264,34.4948158 -78.87193,17.485468 l -103.6317,-66.02057 c -36.6191,-23.906823 -41.2672,-27.595853 -96.384,-61.403303 l -103.6054,-66.00401 c -26.6994,-17.00938 -34.5212,-52.18932 -17.5117,-78.88871 17.0093,-26.69937 52.2158,-34.50443 78.9151,-17.49506 l 103.6055,66.00394 c 32.608,22.22577 59.6841,37.3713 96.3837,61.40337 l 103.63176,66.02058 c 26.69935,17.0093 34.47807,52.198913 17.46872,78.898291 z"
       id="rect2985-40-9"
       inkscape:connector-curvature="0"
       sodipodi:nodetypes="csccsssccscc" />
    <path
       style="fill:#ffffff;fill-opacity:1;stroke:none"
       d="m -947.34256,-295.21377 c -17.0094,-26.69938 -52.1726,-34.49481 -78.87194,-17.48546 l -103.6317,66.02057 c -36.6191,23.90682 -41.2672,27.59585 -96.384,61.4033 l -103.6054,66.00401 c -26.6994,17.00938 -34.5212,52.189321 -17.5117,78.888706 17.0093,26.69937 52.2158,34.5044298 78.9151,17.49506 l 103.6055,-66.003935 c 32.608,-22.225771 59.6841,-37.371301 96.3837,-61.403371 l 103.63174,-66.02058 c 26.6994,-17.0093 34.4781,-52.19891 17.4688,-78.89829 z"
       id="rect2985-40-9-8"
       inkscape:connector-curvature="0"
       sodipodi:nodetypes="csccsssccscc" />
    <path
       sodipodi:type="arc"
       style="fill:#5b868f;fill-opacity:1;stroke:none"
       id="path3005-7-8"
       sodipodi:cx="-1218.5714"
       sodipodi:cy="-11.923532"
       sodipodi:rx="318.57144"
       sodipodi:ry="318.57144"
       d="m -899.99997,-11.923532 a 318.57144,318.57144 0 1 1 -637.14293,0 318.57144,318.57144 0 1 1 637.14293,0 z"
       transform="translate(507.14284,644.28571)" />
    <g
       id="g3125"
       transform="translate(43.09627,-55.000007)">
      <path
         sodipodi:nodetypes="csccsssccscc"
         inkscape:connector-curvature="0"
         id="rect2985-40-2"
         d="m -868.35859,923.50283 c 31.6571,10e-6 57.1249,-25.46793 57.125,-57.12503 l -10e-5,-122.87499 c -0.4874,-43.72927 -1.1013,-49.63148 10e-5,-114.28128 l -10e-5,-122.84378 c 0,-31.65717 -25.4678,-57.15622 -57.125,-57.15621 -31.6571,-4e-5 -57.1562,25.49906 -57.1562,57.15621 l 1e-4,122.84376 c 1.2246,39.4432 -0.5498,70.41684 0,114.2812 l 0,122.8751 c -1e-4,31.65711 25.499,57.12494 57.1561,57.125 z"
         style="fill:#ffffff;fill-opacity:1;stroke:none" />
      <path
         sodipodi:nodetypes="csccsssccscc"
         inkscape:connector-curvature="0"
         id="rect2985-40-9-8-5"
         d="m -516.43254,656.94322 c -17.0094,-26.69938 -52.1726,-34.49481 -78.87194,-17.48546 l -103.6317,66.02057 c -36.6191,23.90682 -41.2672,27.59585 -96.384,61.4033 l -103.6054,66.00401 c -26.6994,17.00938 -34.5212,52.18932 -17.5117,78.88871 17.0093,26.69937 52.2158,34.50443 78.9151,17.49506 l 103.6055,-66.00394 c 32.608,-22.22577 59.6841,-37.3713 96.3837,-61.40337 l 103.63174,-66.02058 c 26.6994,-17.0093 34.4781,-52.19891 17.4688,-78.89829 z"
         style="fill:#ffffff;fill-opacity:1;stroke:none" />
      <path
         sodipodi:nodetypes="csccsssccscc"
         inkscape:connector-curvature="0"
         id="rect2985-40-9-4"
         d="m -516.43254,717.78115 c -17.0094,26.69938 -52.17264,34.49481 -78.87193,17.48547 l -103.6317,-66.02057 c -36.6191,-23.90683 -41.2672,-27.59586 -96.384,-61.40331 l -103.6054,-66.00401 c -26.6994,-17.00938 -34.5212,-52.18932 -17.5117,-78.88871 17.0093,-26.69937 52.2158,-34.50443 78.9151,-17.49506 l 103.6055,66.00394 c 32.608,22.22577 59.6841,37.3713 96.3837,61.40337 l 103.63176,66.02058 c 26.69935,17.0093 34.47807,52.19892 17.46872,78.89829 z"
         style="fill:#ffffff;fill-opacity:1;stroke:none" />
    </g>
    <path
       id="rect2985-40-2-7"
       style="fill:#ffffff;fill-opacity:1;stroke:none"
       d="m -1625.2245,802.985 c -2.8765,0.0754 -5.664,1.53524 -7.3325,4.15428 -1.1354,1.78219 -1.5612,3.80642 -1.3586,5.74832 -0.041,0.35033 -0.064,0.7075 -0.064,1.06924 l 0,19.28045 c 0.1922,6.1906 -0.086,11.0519 0,17.9365 l 0,19.2853 c 0,0.4066 0.027,0.8048 0.079,1.1967 -0.2495,1.997 0.1731,4.0921 1.3439,5.9298 2.6696,4.1905 8.1988,5.4114 12.3893,2.7418 l 16.2591,-10.3588 c 11.0548,-7.10493 19.7969,-12.61173 31.395,-19.9965 2.6593,-1.6941 4.1173,-4.5375 4.1494,-7.4601 0.068,-3.0266 -1.3994,-6.0073 -4.1494,-7.7592 -10.1796,-6.80443 -22.4434,-13.92824 -31.395,-19.99649 l -16.2591,-10.36365 c -1.5714,-1.00111 -3.3308,-1.4529 -5.0568,-1.40765 z m 68.0816,39.37719 c 0,27.6142 -22.3858,50 -50,50 -27.6142,0 -50,-22.3858 -50,-50 0,-27.61424 22.3858,-50 50,-50 27.6142,0 50,22.38576 50,50 z"
       inkscape:connector-curvature="0"
       sodipodi:nodetypes="cscsccscccccccccccsssss" />
    <g
       id="g3398"
       inkscape:export-filename="D:\Portable\Files\Repos\ny-coder\res\ico\run-script-normal.png"
       inkscape:export-xdpi="100"
       inkscape:export-ydpi="100">
      <path
         id="path3192"
         d="m -1747.743,799.02364 c -2.8765,0.0754 -5.664,1.53524 -7.3325,4.15428 -1.1354,1.78219 -1.5612,3.80642 -1.3586,5.74832 -0.041,0.35033 -0.064,0.7075 -0.064,1.06924 l 0,19.28045 c 0.1922,6.1906 -0.086,11.0519 0,17.9365 l 0,19.2853 c 0,0.4066 0.027,0.8048 0.079,1.1967 -0.2495,1.997 0.1731,4.0921 1.3439,5.9298 2.6696,4.1905 8.1988,5.4114 12.3893,2.7418 l 16.2591,-10.3588 c 5.1179,-3.4883 9.3661,-5.8659 15.1261,-9.6377 l 16.2689,-10.3588 c 2.6593,-1.6941 4.1173,-4.5375 4.1494,-7.4601 0.068,-3.0266 -1.3994,-6.0073 -4.1494,-7.7592 l -16.2689,-10.36364 c -5.76,-3.77186 -10.0082,-6.14449 -15.1261,-9.63285 l -16.2591,-10.36365 c -1.5714,-1.00111 -3.3308,-1.4529 -5.0568,-1.40765 z"
         style="fill:#b3b3b3;fill-opacity:1;stroke:none"
         inkscape:connector-curvature="0" />
      <path
         id="path3190"
         d="m -1738.5613,824.33193 2.4965,1.5891 c 8.6506,5.3061 9.3787,5.8856 15.1261,9.6378 l 4.4633,2.8398 -4.4633,2.8447 c -5.7474,3.7522 -6.4755,4.3317 -15.1261,9.6378 l -2.4965,1.5891 0,-5.2578 c -0.077,-6.8634 -0.1729,-7.7897 0,-17.9365 l 0,-4.944 z"
         style="fill:#b3b3b3;fill-opacity:1;stroke:none"
         inkscape:connector-curvature="0" />
      <path
         id="rect2985-40-2-7-5"
         d="m -1679.6614,838.40083 c 0,27.6142 -22.3858,50 -50,50 -27.6142,0 -50,-22.3858 -50,-50 0,-27.61424 22.3858,-50 50,-50 27.6142,0 50,22.38576 50,50 z"
         style="fill:none;stroke:none"
         inkscape:connector-curvature="0" />
    </g>
    <g
       id="g3309"
       transform="translate(505.71432,-94.285714)">
      <path
         transform="translate(152.8571,1514.2857)"
         d="m -899.99997,-11.923532 c 0,175.942152 -142.62933,318.571442 -318.57143,318.571442 -175.9422,0 -318.5715,-142.62929 -318.5715,-318.571442 0,-175.942148 142.6293,-318.571438 318.5715,-318.571438 175.9421,0 318.57143,142.62929 318.57143,318.571438 z"
         sodipodi:ry="318.57144"
         sodipodi:rx="318.57144"
         sodipodi:cy="-11.923532"
         sodipodi:cx="-1218.5714"
         id="path3005-76"
         style="fill:#5b868f;fill-opacity:1;stroke:none"
         sodipodi:type="arc" />
      <g
         transform="translate(1.3867116e-5,6.091324e-5)"
         id="g3303">
        <path
           style="fill:#ffffff;fill-opacity:1;stroke:none"
           d="m -886.08385,1265.2217 c 31.6572,0 57.1249,25.4679 57.125,57.125 l -10e-5,122.875 c 1.1845,65.2214 -0.8164,39.5299 0,114.2812 l -1e-4,122.8438 c 0,31.6572 -25.4678,57.1563 -57.125,57.1562 -31.6573,0 -57.1564,-25.4991 -57.1563,-57.1562 l 0,-122.8438 c -2.169,-54.1307 -2.2094,-54.6822 0,-114.2814 l 0,-122.8751 c 0,-31.657 25.499,-57.1249 57.1562,-57.125 z"
           id="rect2985-1-2"
           inkscape:connector-curvature="0"
           sodipodi:nodetypes="csccsssccscc" />
        <path
           style="fill:#ffffff;fill-opacity:1;stroke:none"
           d="m -1302.8548,1322.7316 c 0,-31.6572 25.4679,-57.1249 57.125,-57.125 l 122.875,10e-5 c 65.2214,-1.1845 39.5299,0.8164 114.2812,0 l 122.84382,10e-5 c 31.6571,0 57.1563,25.4678 57.1562,57.125 0,31.6572 -25.4991,57.1563 -57.1562,57.1562 l -122.84382,0 c -54.1307,2.169 -54.6822,2.2094 -114.2814,0 l -122.8751,0 c -31.657,0 -57.1249,-25.499 -57.125,-57.1561 z"
           id="rect2985-1-4"
           inkscape:connector-curvature="0"
           sodipodi:nodetypes="csccsssccscc" />
        <path
           style="fill:#ffffff;fill-opacity:1;stroke:none"
           d="m -1245.3448,1265.2217 c -31.6572,0 -57.1249,25.4679 -57.125,57.125 l 10e-5,122.875 c -1.1845,65.2214 0.8164,39.5299 0,114.2812 l 1e-4,122.8439 c 0,31.6571 25.4678,57.1562 57.125,57.1561 31.6572,0 57.1563,-25.4991 57.1562,-57.1562 l 0,-122.8438 c 2.169,-54.1307 2.2094,-54.6822 0,-114.2814 l 0,-122.8751 c 0,-31.657 -25.499,-57.1249 -57.1561,-57.125 z"
           id="rect2985-1"
           inkscape:connector-curvature="0"
           sodipodi:nodetypes="csccsssccscc" />
        <path
           style="fill:#ffffff;fill-opacity:1;stroke:none"
           d="m -1302.8548,1681.9926 c 0,31.6572 25.4679,57.1249 57.125,57.125 l 122.875,-10e-5 c 65.2214,1.1845 39.5299,-0.8164 114.2812,0 l 122.84382,-10e-5 c 31.65718,0 57.1563,-25.4678 57.15623,-57.125 0,-31.6572 -25.49912,-57.1563 -57.15623,-57.1562 l -122.84382,0 c -54.1307,-2.169 -54.6822,-2.2094 -114.2814,0 l -122.8751,0 c -31.657,0 -57.1249,25.499 -57.125,57.1561 z"
           id="rect2985-1-3"
           inkscape:connector-curvature="0"
           sodipodi:nodetypes="csccsssccscc" />
      </g>
    </g>
    <path
       id="rect2985-1-2-6"
       style="fill:#ffffff;fill-opacity:1;stroke:none"
       d="m -1636.7659,927.9988 c -2.3554,0 -4.4904,0.8997 -6.0868,2.3739 -0.014,0.012 -0.026,0.027 -0.039,0.039 -0.1781,0.1665 -0.3511,0.3395 -0.515,0.5199 -1.4786,1.5973 -2.3837,3.7372 -2.3837,6.0966 0,0.3493 0.02,0.6912 0.059,1.03 l 0,18.1915 c -0.1859,10.2366 0.1282,6.2043 0,17.9365 l 0,18.1916 c -0.038,0.3391 -0.059,0.6851 -0.059,1.0349 0,2.50199 1.0127,4.75799 2.6534,6.38099 0.068,0.069 0.1404,0.1345 0.2109,0.2011 0.026,0.024 0.053,0.045 0.078,0.069 1.5962,1.4739 3.7278,2.3739 6.0819,2.3738 0.3497,0 0.6957,-0.02 1.0348,-0.059 l 18.1916,0 c 10.2365,0.1859 6.2043,-0.1281 17.9365,0 l 18.1916,0 c 0.3387,0.039 0.6855,0.059 1.0349,0.059 2.3593,10e-5 4.4943,-0.9039 6.0916,-2.3836 0.096,-0.087 0.1877,-0.17391 0.2796,-0.26491 0.01,-0.01 0.02,-0.02 0.029,-0.029 0.082,-0.082 0.1617,-0.1701 0.2403,-0.2551 1.4793,-1.5972 2.3837,-3.7328 2.3837,-6.09159 0,-0.3498 -0.02,-0.6958 -0.059,-1.0349 l 0,-18.1916 c -0.1282,-11.7322 0.1859,-7.6999 0,-17.9365 l 0,-18.1915 c 0.038,-0.3388 0.059,-0.6807 0.059,-1.03 0,-2.3591 -0.9042,-4.4993 -2.3837,-6.0966 -0.038,-0.042 -0.079,-0.082 -0.1177,-0.1226 -0.041,-0.043 -0.081,-0.086 -0.1226,-0.1275 -0.1008,-0.1028 -0.2033,-0.2014 -0.309,-0.2992 -1.5973,-1.4786 -3.7323,-2.3837 -6.0916,-2.3837 -0.3528,0 -0.7028,0.024 -1.0447,0.064 l -18.1818,0 c -11.7322,0.1281 -7.7,-0.186 -17.9365,0 l -18.1818,0 c -0.3423,-0.039 -0.6915,-0.064 -1.0446,-0.064 z m 78.1943,37.2205 c 0,27.6142 -22.3858,50 -50,50 -27.6142,0 -50,-22.3858 -50,-50 0,-27.6142 22.3858,-50 50,-50 27.6142,0 50,22.3858 50,50 z"
       inkscape:connector-curvature="0"
       sodipodi:nodetypes="ccccsccccscccccccccccscsccccsccccsccccccsssss" />
    <g
       id="g3555"
       inkscape:export-filename="D:\Portable\Files\Repos\ny-coder\res\ico\stop-script-normal.png"
       inkscape:export-xdpi="100"
       inkscape:export-ydpi="100">
      <path
         id="path3388"
         d="m -1749.623,929.92216 c -2.3553,0 -4.4903,0.89972 -6.0867,2.37388 -0.014,0.0124 -0.026,0.0268 -0.039,0.0392 -0.178,0.16646 -0.3511,0.33947 -0.515,0.5199 -1.4786,1.59729 -2.3837,3.73723 -2.3837,6.09655 0,0.34935 0.02,0.69125 0.059,1.03 l 0,18.19155 c -0.1859,10.23654 0.1281,6.20426 0,17.93651 l 0,18.19157 c -0.039,0.33914 -0.059,0.68512 -0.059,1.03488 0,2.50198 1.0127,4.7581 2.6535,6.3811 0.068,0.069 0.1404,0.1344 0.2109,0.2011 0.026,0.024 0.053,0.045 0.079,0.069 1.5961,1.4739 3.7277,2.3739 6.0818,2.3739 0.3498,0 0.6958,-0.02 1.0349,-0.059 l 18.1916,0 c 10.2365,0.186 6.2042,-0.1281 17.9365,0 l 18.1915,0 c 0.3388,0.039 0.6856,0.059 1.0349,0.059 2.3593,0 4.4944,-0.9039 6.0917,-2.3837 0.096,-0.087 0.1876,-0.1739 0.2795,-0.2648 0.01,-0.01 0.02,-0.02 0.029,-0.029 0.082,-0.082 0.1616,-0.17 0.2403,-0.255 1.4792,-1.59723 2.3837,-3.73285 2.3837,-6.0917 0,-0.34976 -0.02,-0.69574 -0.059,-1.03488 l 0,-18.19157 c -0.1281,-11.73225 0.1859,-7.69997 0,-17.93651 l 0,-18.19155 c 0.039,-0.33875 0.059,-0.68065 0.059,-1.03 0,-2.35908 -0.9042,-4.49931 -2.3837,-6.09655 -0.038,-0.0416 -0.079,-0.0818 -0.1177,-0.12262 -0.041,-0.0425 -0.081,-0.0859 -0.1226,-0.12751 -0.1008,-0.10277 -0.2034,-0.2014 -0.309,-0.2992 -1.5973,-1.47858 -3.7324,-2.38368 -6.0917,-2.38368 -0.3527,0 -0.7028,0.0245 -1.0447,0.0638 l -18.1817,0 c -11.7323,0.12813 -7.7,-0.18591 -17.9365,0 l -18.1818,0 c -0.3423,-0.0393 -0.6915,-0.0638 -1.0447,-0.0638 z"
         style="fill:#b3b3b3;fill-opacity:1;stroke:none"
         inkscape:connector-curvature="0" />
      <path
         id="rect2985-1-2-6-6"
         d="m -1671.4286,967.14267 c 0,27.61423 -22.3858,50.00003 -50,50.00003 -27.6143,0 -50,-22.3858 -50,-50.00003 0,-27.61424 22.3857,-50 50,-50 27.6142,0 50,22.38576 50,50 z"
         style="fill:none;stroke:none"
         inkscape:connector-curvature="0" />
      <path
         id="path3386"
         d="m -1740.6523,947.92243 10.2558,0 c 9.3541,0.34677 9.4406,0.34043 17.9365,0 l 10.2557,0 0,10.25084 c -0.3467,9.35413 -0.3404,9.44068 0,17.93651 l 0,10.25575 -10.2557,0 c -8.4959,-0.34043 -8.5824,-0.34677 -17.9365,0 l -10.2558,0 0,-10.25575 c 0.3404,-8.49583 0.3468,-8.58238 0,-17.93651 l 0,-10.25084 z"
         style="fill:#b3b3b3;fill-opacity:1;stroke:none"
         inkscape:connector-curvature="0" />
    </g>
    <g
       id="g3470">
      <path
         transform="translate(-51.42859,1488.5714)"
         d="m -899.99997,-11.923532 a 318.57144,318.57144 0 1 1 -637.14293,0 318.57144,318.57144 0 1 1 637.14293,0 z"
         sodipodi:ry="318.57144"
         sodipodi:rx="318.57144"
         sodipodi:cy="-11.923532"
         sodipodi:cx="-1218.5714"
         id="path3005-76-8"
         style="fill:#5b868f;fill-opacity:1;stroke:none"
         sodipodi:type="arc" />
      <g
         transform="translate(-4.4932011,-7.1428315)"
         id="g3465">
        <path
           style="fill:#ffffff;fill-opacity:1;stroke:none"
           d="m -1502.6473,1483.1466 c 0,-31.6572 25.468,-57.1249 57.125,-57.125 l 122.875,10e-5 c 65.2214,-1.1845 39.5299,0.8164 114.2812,0 l 122.8438,10e-5 c 31.6572,0 57.1563,25.4678 57.1562,57.125 0,31.6573 -25.4991,57.1564 -57.1562,57.1563 l -122.8438,0 c -54.1307,2.169 -54.6822,2.2094 -114.2814,0 l -122.8751,0 c -31.657,0 -57.1249,-25.499 -57.125,-57.1562 z"
           id="rect2985-1-2-2"
           inkscape:connector-curvature="0"
           sodipodi:nodetypes="csccsssccscc" />
        <path
           style="fill:#ffffff;fill-opacity:1;stroke:none"
           d="m -1502.6473,1338.4459 c 0,-31.6572 25.4679,-57.1249 57.125,-57.125 l 122.875,10e-5 c 65.2214,-1.1845 39.5299,0.8164 114.2812,0 l 122.8438,10e-5 c 31.6571,0 57.1564,25.4678 57.1562,57.125 0,31.6572 -25.4991,57.1563 -57.1562,57.1562 l -122.8438,0 c -54.1307,2.169 -54.6822,2.2094 -114.2814,0 l -122.8751,0 c -31.657,0 -57.1249,-25.499 -57.125,-57.1561 z"
           id="rect2985-1-4-7"
           inkscape:connector-curvature="0"
           sodipodi:nodetypes="csccsssccscc" />
        <path
           style="fill:#ffffff;fill-opacity:1;stroke:none"
           d="m -1502.6473,1629.1355 c 0,31.6572 25.4679,57.1249 57.125,57.125 l 122.875,-1e-4 c 65.2214,1.1845 39.5299,-0.8164 114.2812,0 l 122.8438,-10e-5 c 31.6572,0 57.1563,-25.4678 57.1563,-57.125 0,-31.6572 -25.4992,-57.1563 -57.1563,-57.1562 l -122.8438,0 c -54.1307,-2.169 -54.6822,-2.2094 -114.2814,0 l -122.8751,0 c -31.657,0 -57.1249,25.499 -57.125,57.1561 z"
           id="rect2985-1-3-5"
           inkscape:connector-curvature="0"
           sodipodi:nodetypes="csccsssccscc" />
      </g>
    </g>
    <path
       id="rect2985-1-2-2-2"
       style="fill:#ffffff;fill-opacity:1;stroke:none"
       d="m -1610.6421,1054.8078 c -1.2448,0 -2.9096,0.017 -5.4687,0.064 l -19.2853,0 c -4.9686,0 -8.9658,3.9972 -8.9658,8.9658 0,4.9686 3.9972,8.9707 8.9658,8.9707 l 19.2853,0 c 9.3541,0.3468 9.4407,0.3405 17.9365,0 l 19.2804,0 c 4.9686,0 8.9707,-4.0021 8.9707,-8.9707 10e-5,-4.9686 -4.0021,-8.9658 -8.9707,-8.9658 l -19.2804,0 c -8.7992,0.096 -8.7334,-0.06 -12.4678,-0.064 z m 0,22.7137 c -1.2448,0 -2.9096,0.012 -5.4687,0.059 l -19.2853,0 c -4.9686,0 -8.9658,3.9972 -8.9658,8.9658 0,4.9686 3.9972,8.9707 8.9658,8.9707 l 19.2853,0 c 9.3541,0.3468 9.4407,0.3405 17.9365,0 l 19.2804,0 c 4.9686,0 8.9707,-4.0021 8.9707,-8.9707 0,-4.9686 -4.0021,-8.9658 -8.9707,-8.9658 l -19.2804,0 c -8.7992,0.096 -8.7334,-0.055 -12.4678,-0.059 z m 3.8208,22.7088 c -2.2529,0 -4.6124,0.087 -9.2895,0.26 l -19.2853,0 c -4.9686,0 -8.9658,4.0021 -8.9658,8.9707 0,4.9686 3.9972,8.9658 8.9658,8.9658 l 19.2853,0 c 10.2365,0.1859 6.2042,-0.1281 17.9365,0 l 19.2804,0 c 4.9686,0 8.9707,-3.9972 8.9707,-8.9658 0,-4.9686 -4.0021,-8.9707 -8.9707,-8.9707 l -19.2804,0 c -4.2479,-0.1702 -6.3941,-0.2592 -8.647,-0.26 z m 49.6784,-13.5824 c 0,27.6142 -22.3858,50 -50,50 -27.6142,0 -50,-22.3858 -50,-50 0,-27.6142 22.3858,-50 50,-50 27.6142,0 50,22.3858 50,50 z"
       inkscape:connector-curvature="0" />
    <g
       id="g3560"
       transform="matrix(0.15695069,0,0,0.15695069,-1467.0019,853.29191)"
       inkscape:export-filename="D:\Portable\Files\Repos\ny-coder\res\ico\menu-normal.png"
       inkscape:export-xdpi="100"
       inkscape:export-ydpi="100">
      <path
         id="path3550"
         d="m -1625.1517,1256.6384 c -7.9312,-0.01 -18.5384,0.1102 -34.8437,0.4063 l -122.875,0 c -31.6571,10e-5 -57.125,25.4678 -57.125,57.125 0,31.6571 25.468,57.1563 57.125,57.1563 l 122.875,0 c 59.5992,2.2093 60.1505,2.169 114.2812,0 l 122.8438,0 c 31.6569,10e-5 57.1561,-25.4991 57.1561,-57.1563 2e-4,-31.6572 -25.4992,-57.125 -57.1561,-57.125 l -122.8438,0 c -56.0635,0.6123 -55.644,-0.3815 -79.4375,-0.4063 z"
         style="fill:#b3b3b3;fill-opacity:1;stroke:none"
         inkscape:connector-curvature="0" />
      <path
         id="path3548"
         d="m -1625.1517,1401.3572 c -7.9312,-0.01 -18.5384,0.079 -34.8437,0.375 l -122.875,0 c -31.657,10e-5 -57.125,25.4678 -57.125,57.125 0,31.6572 25.468,57.1562 57.125,57.1562 l 122.875,0 c 59.5992,2.2094 60.1505,2.1691 114.2812,0 l 122.8438,0 c 31.6569,10e-5 57.1561,-25.4989 57.1561,-57.1562 1e-4,-31.6572 -25.499,-57.125 -57.1561,-57.125 l -122.8438,0 c -56.0635,0.6123 -55.644,-0.3502 -79.4375,-0.375 z"
         style="fill:#b3b3b3;fill-opacity:1;stroke:none"
         inkscape:connector-curvature="0" />
      <path
         id="rect2985-1-2-2-2-4"
         d="m -1284.2857,1459.5051 c 0,175.9421 -142.6292,318.5714 -318.5713,318.5714 -175.9422,0 -318.5715,-142.6293 -318.5715,-318.5714 0,-175.9422 142.6293,-318.5715 318.5715,-318.5715 175.9421,0 318.5713,142.6293 318.5713,318.5715 z"
         style="fill:none;stroke:none"
         inkscape:connector-curvature="0" />
      <path
         id="path3546"
         d="m -1600.808,1546.0447 c -14.3541,-0.01 -29.3878,0.5516 -59.1874,1.6563 l -122.875,0 c -31.657,0 -57.125,25.4991 -57.125,57.1562 0,31.6572 25.4679,57.1249 57.125,57.125 l 122.875,0 c 65.2213,1.1845 39.5299,-0.8164 114.2812,0 l 122.8438,0 c 31.6571,0 57.1561,-25.4678 57.1561,-57.125 0,-31.6572 -25.4991,-57.1564 -57.1561,-57.1562 l -122.8438,0 c -27.0653,-1.0845 -40.7396,-1.6513 -55.0938,-1.6563 z"
         style="fill:#b3b3b3;fill-opacity:1;stroke:none"
         inkscape:connector-curvature="0" />
    </g>
    <rect
       style="fill:#ffffff;fill-opacity:1;stroke:#999999"
       id="rect3566"
       width="3298.5715"
       height="1834.2858"
       x="-4485.7144"
       y="-2650.4951"
       ry="139.49097" />
    <text
       xml:space="preserve"
       style="font-size:250px;font-style:normal;font-variant:normal;font-weight:bold;font-stretch:normal;text-align:start;line-height:125%;letter-spacing:0px;word-spacing:0px;writing-mode:lr;text-anchor:start;fill:#000000;fill-opacity:1;stroke:none;font-family:Fira Code Retina;-inkscape-font-specification:Fira Code Retina Bold"
       x="-3453.1951"
       y="-1944.6636"
       id="text3568"
       sodipodi:linespacing="125%"><tspan
         sodipodi:role="line"
         id="tspan3628">(nyquist coder)</tspan></text>
    <g
       id="g3653">
      <path
         transform="matrix(0.62780266,0,0,0.62780266,-2686.9024,-1318.7235)"
         d="m -899.99997,-11.923532 a 318.57144,318.57144 0 1 1 -637.14293,0 318.57144,318.57144 0 1 1 637.14293,0 z"
         sodipodi:ry="318.57144"
         sodipodi:rx="318.57144"
         sodipodi:cy="-11.923532"
         sodipodi:cx="-1218.5714"
         id="path3005-7-1"
         style="fill:#000000;fill-opacity:1;stroke:none"
         sodipodi:type="arc" />
      <g
         transform="matrix(0.62780266,0,0,0.62780266,-1292.2836,-142.93882)"
         style="fill:#ffffff"
         id="g3611">
        <path
           style="fill:#ffffff;fill-opacity:1;stroke:none"
           d="m -3439.93,-1647.64 c 31.6571,0 57.1249,-25.4679 57.125,-57.125 l -1e-4,-122.875 c -0.4874,-43.7293 -1.1013,-49.6315 1e-4,-114.2813 l -1e-4,-122.8438 c 0,-31.6572 -25.4678,-57.1562 -57.125,-57.1562 -31.6571,-1e-4 -57.1562,25.4991 -57.1562,57.1562 l 10e-5,122.8438 c 1.2246,39.4432 -0.5498,70.4168 0,114.2812 l 0,122.8751 c -10e-5,31.6571 25.499,57.1249 57.1561,57.125 z"
           id="rect2985-40-1"
           inkscape:connector-curvature="0"
           sodipodi:nodetypes="csccsssccscc" />
        <path
           style="fill:#ffffff;fill-opacity:1;stroke:none"
           d="m -3240.004,-1757.3617 c -17.0094,26.6994 -52.1726,34.4948 -78.8719,17.4855 l -103.6317,-66.0206 c -36.6191,-23.9068 -41.2672,-27.5959 -96.384,-61.4033 l -103.6054,-66.004 c -26.6994,-17.0094 -34.5212,-52.1893 -17.5117,-78.8887 17.0093,-26.6994 52.2158,-34.5045 78.9151,-17.4951 l 103.6055,66.0039 c 32.608,22.2258 59.6841,37.3713 96.3837,61.4034 l 103.6318,66.0206 c 26.6993,17.0093 34.478,52.1989 17.4687,78.8983 z"
           id="rect2985-40-9-3"
           inkscape:connector-curvature="0"
           sodipodi:nodetypes="csccsssccscc" />
        <path
           style="fill:#ffffff;fill-opacity:1;stroke:none"
           d="m -3240.004,-2012.1996 c -17.0094,-26.6994 -52.1726,-34.4948 -78.8719,-17.4855 l -103.6317,66.0206 c -36.6191,23.9068 -41.2672,27.5958 -96.384,61.4033 l -103.6054,66.004 c -26.6994,17.0094 -34.5212,52.1893 -17.5117,78.8887 17.0093,26.6994 52.2158,34.5044 78.9151,17.4951 l 103.6055,-66.004 c 32.608,-22.2257 59.6841,-37.3713 96.3837,-61.4033 l 103.6317,-66.0206 c 26.6994,-17.0093 34.4781,-52.1989 17.4688,-78.8983 z"
           id="rect2985-40-9-8-8"
           inkscape:connector-curvature="0"
           sodipodi:nodetypes="csccsssccscc" />
      </g>
    </g>
    <rect
       style="fill:#ffffff;fill-opacity:1;stroke:none"
       id="rect3660"
       width="600"
       height="550.90912"
       x="-3480.749"
       y="67.916405"
       ry="99.054543" />
    <text
       xml:space="preserve"
       style="font-size:200px;font-style:normal;font-variant:normal;font-weight:normal;font-stretch:normal;text-align:start;line-height:125%;letter-spacing:0px;word-spacing:0px;writing-mode:lr-tb;text-anchor:start;fill:#000000;fill-opacity:1;stroke:none;font-family:Fira Code Retina;-inkscape-font-specification:Fira Code Retina"
       x="-3420.6323"
       y="413.36914"
       id="text3568-7"
       sodipodi:linespacing="125%"><tspan
         sodipodi:role="line"
         id="tspan3651"
         x="-3420.6323"
         y="413.36914">(nc)</tspan></text>
    <g
       id="g3688"
       transform="matrix(0.16666667,0,0,0.16666667,-2376.6666,809.3711)"
       inkscape:export-filename="D:\Portable\Files\Repos\ny-coder\res\ico\application.png"
       inkscape:export-xdpi="100"
       inkscape:export-ydpi="100">
      <rect
         ry="99.054543"
         y="-320.23523"
         x="-3791.4285"
         height="550.90912"
         width="600"
         id="rect3660-2"
         style="fill:#ffffff;fill-opacity:1;stroke:none" />
      <text
         sodipodi:linespacing="125%"
         id="text3568-7-7"
         y="25.217497"
         x="-3731.3118"
         style="font-size:200px;font-style:normal;font-variant:normal;font-weight:normal;font-stretch:normal;text-align:start;line-height:125%;letter-spacing:0px;word-spacing:0px;writing-mode:lr-tb;text-anchor:start;fill:#000000;fill-opacity:1;stroke:none;font-family:Fira Code Retina;-inkscape-font-specification:Fira Code Retina"
         xml:space="preserve"><tspan
           y="25.217497"
           x="-3731.3118"
           id="tspan3651-7"
           sodipodi:role="line">(nc)</tspan></text>
    </g>
  </g>
</svg>
